<?xml version="1.0" encoding="UTF-8"?>
<!DOCTYPE svg PUBLIC "-//W3C//DTD SVG 1.1//EN" "http://www.w3.org/Graphics/SVG/1.1/DTD/svg11.dtd">
<svg xmlns="http://www.w3.org/2000/svg" version="1.1" width="1280px" height="1280px" style="shape-rendering:geometricPrecision; text-rendering:geometricPrecision; image-rendering:optimizeQuality; fill-rule:evenodd; clip-rule:evenodd" xmlns:xlink="http://www.w3.org/1999/xlink">
<g><path style="opacity:0.999" fill="#000000" d="M 639.5,319.5 C 639.5,372.833 639.5,426.167 639.5,479.5C 559.5,479.5 479.5,479.5 399.5,479.5C 396.741,438.237 375.408,412.07 335.5,401C 295.666,395.5 266.166,410.333 247,445.5C 241.974,456.272 239.474,467.605 239.5,479.5C 159.5,479.5 79.5,479.5 -0.5,479.5C -0.5,455.5 -0.5,431.5 -0.5,407.5C 7.45786,365.364 31.7912,337.197 72.5,323C 77.7608,321.615 83.0941,320.615 88.5,320C 272.166,319.5 455.833,319.333 639.5,319.5 Z"/></g>
<g><path style="opacity:1" fill="#002776" d="M 639.5,319.5 C 823.167,319.333 1006.83,319.5 1190.5,320C 1230.75,326.546 1258.59,348.713 1274,386.5C 1276.3,393.514 1278.13,400.514 1279.5,407.5C 1279.5,562.167 1279.5,716.833 1279.5,871.5C 1272.17,910.01 1250.5,937.177 1214.5,953C 1206.43,956.101 1198.1,958.101 1189.5,959C 822.833,959.667 456.167,959.667 89.5,959C 47.6116,952.306 19.1116,929.139 4,889.5C 2.46782,883.371 0.967815,877.371 -0.5,871.5C -0.5,794.167 -0.5,716.833 -0.5,639.5C 212.833,639.5 426.167,639.5 639.5,639.5C 639.5,586.167 639.5,532.833 639.5,479.5C 639.5,426.167 639.5,372.833 639.5,319.5 Z"/></g>
<g><path style="opacity:1" fill="#f9f9fb" d="M 1002.5,437.5 C 1000.5,438.167 998.5,438.833 996.5,439.5C 989.51,439.999 982.51,440.332 975.5,440.5C 977.187,450.137 978.354,459.804 979,469.5C 973.017,462.35 966.517,455.683 959.5,449.5C 952.483,455.683 945.983,462.35 940,469.5C 940.646,459.804 941.813,450.137 943.5,440.5C 934.126,440.408 924.793,439.742 915.5,438.5C 923.5,433.5 931.5,428.5 939.5,423.5C 934.376,416.086 929.376,408.586 924.5,401C 933.167,403.667 941.833,406.333 950.5,409C 953.269,400.427 956.269,391.927 959.5,383.5C 962.423,392.026 965.423,400.526 968.5,409C 976.77,406.798 984.936,403.964 993,400.5C 993.5,400.833 994,401.167 994.5,401.5C 989.5,408.833 984.5,416.167 979.5,423.5C 987.028,428.429 994.695,433.096 1002.5,437.5 Z"/></g>
<g><path style="opacity:1" fill="#fcc72e" d="M 399.5,479.5 C 396.501,521.664 374.501,547.831 333.5,558C 293.242,562.456 264.075,546.623 246,510.5C 242.233,500.497 240.066,490.164 239.5,479.5C 239.474,467.605 241.974,456.272 247,445.5C 266.166,410.333 295.666,395.5 335.5,401C 375.408,412.07 396.741,438.237 399.5,479.5 Z"/></g>
<g><path style="opacity:1" fill="#7084b1" d="M 1002.5,437.5 C 1003.04,437.56 1003.38,437.893 1003.5,438.5C 1001.26,439.474 998.924,439.808 996.5,439.5C 998.5,438.833 1000.5,438.167 1002.5,437.5 Z"/></g>
<g><path style="opacity:1" fill="#de3831" d="M -0.5,479.5 C 79.5,479.5 159.5,479.5 239.5,479.5C 240.066,490.164 242.233,500.497 246,510.5C 264.075,546.623 293.242,562.456 333.5,558C 374.501,547.831 396.501,521.664 399.5,479.5C 479.5,479.5 559.5,479.5 639.5,479.5C 639.5,532.833 639.5,586.167 639.5,639.5C 426.167,639.5 212.833,639.5 -0.5,639.5C -0.5,586.167 -0.5,532.833 -0.5,479.5 Z"/></g>
<g><path style="opacity:1" fill="#f8f9fb" d="M 1101.5,513.5 C 1104.67,522.494 1108.01,531.494 1111.5,540.5C 1120.1,536.804 1128.76,533.638 1137.5,531C 1132,538.342 1127,546.009 1122.5,554C 1122.64,554.772 1122.98,555.439 1123.5,556C 1131.09,559.935 1138.43,564.268 1145.5,569C 1136.57,570.626 1127.57,571.459 1118.5,571.5C 1119.48,580.851 1120.31,590.184 1121,599.5C 1114.3,593.136 1107.97,586.469 1102,579.5C 1095.28,586.564 1088.45,593.064 1081.5,599C 1082.97,589.891 1084.3,580.725 1085.5,571.5C 1076.11,571.218 1066.77,570.385 1057.5,569C 1065.67,564.418 1073.67,559.585 1081.5,554.5C 1076.75,546.663 1071.75,538.996 1066.5,531.5C 1066.67,531.167 1066.83,530.833 1067,530.5C 1075.66,534.33 1084.49,537.663 1093.5,540.5C 1095.77,531.372 1098.43,522.372 1101.5,513.5 Z"/></g>
<g><path style="opacity:1" fill="#f8f9fb" d="M 798.5,556.5 C 799.586,556.62 800.253,557.287 800.5,558.5C 802.874,566.456 805.541,574.289 808.5,582C 817.19,579.992 825.69,577.159 834,573.5C 829.742,581.482 824.908,589.316 819.5,597C 827.5,602 835.5,607 843.5,612C 834.841,612.761 826.174,613.428 817.5,614C 816.692,614.308 816.025,614.808 815.5,615.5C 817.374,624.451 818.541,633.451 819,642.5C 812.291,635.959 805.791,629.292 799.5,622.5C 793.209,629.292 786.709,635.959 780,642.5C 780.459,633.451 781.626,624.451 783.5,615.5C 774.265,613.705 764.932,612.539 755.5,612C 763.5,607 771.5,602 779.5,597C 774.624,589.414 769.624,581.914 764.5,574.5C 771.817,576.219 779.151,578.719 786.5,582C 787.833,582.667 789.167,582.667 790.5,582C 793.872,573.716 796.539,565.216 798.5,556.5 Z"/></g>
<g><path style="opacity:1" fill="#f5f6fa" d="M 1022.5,642.5 C 1023.5,642.47 1024.16,642.97 1024.5,644C 1026.36,648.89 1028.36,653.724 1030.5,658.5C 1036.58,659.085 1042.58,659.918 1048.5,661C 1044.33,664.5 1040.17,668 1036,671.5C 1036.67,677.5 1037.33,683.5 1038,689.5C 1033.08,686.625 1028.25,683.625 1023.5,680.5C 1018.83,683.5 1014.17,686.5 1009.5,689.5C 1009.17,688.667 1008.83,687.833 1008.5,687C 1010.07,681.901 1010.9,676.734 1011,671.5C 1006.83,668 1002.67,664.5 998.5,661C 1004.36,659.873 1010.36,659.04 1016.5,658.5C 1019.08,653.354 1021.08,648.021 1022.5,642.5 Z"/></g>
<g><path style="opacity:1" fill="#fcfcfd" d="M 411.5,824.5 C 409.5,825.167 407.5,825.833 405.5,826.5C 388.19,828.116 370.857,829.449 353.5,830.5C 356.28,850.119 358.446,869.786 360,889.5C 346.654,875.322 333.154,861.322 319.5,847.5C 305.846,861.322 292.346,875.322 279,889.5C 280.554,869.786 282.72,850.119 285.5,830.5C 268.151,829.356 250.818,828.023 233.5,826.5C 231.5,825.833 229.5,825.167 227.5,824.5C 244.411,814.925 261.078,804.925 277.5,794.5C 266.696,777.864 255.696,761.364 244.5,745C 263.451,751.708 282.451,758.541 301.5,765.5C 306.882,746.643 312.882,727.976 319.5,709.5C 326.118,727.976 332.118,746.643 337.5,765.5C 356.549,758.541 375.549,751.708 394.5,745C 383.304,761.364 372.304,777.864 361.5,794.5C 377.922,804.925 394.589,814.925 411.5,824.5 Z"/></g>
<g><path style="opacity:1" fill="#f9f9fb" d="M 958.5,810.5 C 959.497,810.47 960.164,810.97 960.5,812C 963.15,820.286 965.983,828.452 969,836.5C 977.31,832.841 985.81,830.008 994.5,828C 989.747,835.507 984.747,842.84 979.5,850C 987.234,855.396 995.234,860.396 1003.5,865C 994.158,866.12 984.825,867.287 975.5,868.5C 976.311,876.894 977.645,885.228 979.5,893.5C 979.167,894.167 978.833,894.833 978.5,895.5C 972.167,888.833 965.833,882.167 959.5,875.5C 953.167,882.167 946.833,888.833 940.5,895.5C 940.167,894.833 939.833,894.167 939.5,893.5C 941.355,885.228 942.689,876.894 943.5,868.5C 934.185,867.192 924.852,866.025 915.5,865C 923.766,860.396 931.766,855.396 939.5,850C 934.253,842.84 929.253,835.507 924.5,828C 933.167,830.667 941.833,833.333 950.5,836C 953.466,827.6 956.133,819.1 958.5,810.5 Z"/></g>
<g><path style="opacity:1" fill="#8999bf" d="M 227.5,824.5 C 229.5,825.167 231.5,825.833 233.5,826.5C 231.076,826.808 228.743,826.474 226.5,825.5C 226.624,824.893 226.957,824.56 227.5,824.5 Z"/></g>
<g><path style="opacity:1" fill="#687dad" d="M 411.5,824.5 C 412.043,824.56 412.376,824.893 412.5,825.5C 410.257,826.474 407.924,826.808 405.5,826.5C 407.5,825.833 409.5,825.167 411.5,824.5 Z"/></g>
</svg>
