<?xml version="1.0" encoding="UTF-8"?>
<!DOCTYPE svg PUBLIC "-//W3C//DTD SVG 1.1//EN" "http://www.w3.org/Graphics/SVG/1.1/DTD/svg11.dtd">
<svg xmlns="http://www.w3.org/2000/svg" version="1.1" width="64px" height="64px" style="shape-rendering:geometricPrecision; text-rendering:geometricPrecision; image-rendering:optimizeQuality; fill-rule:evenodd; clip-rule:evenodd" xmlns:xlink="http://www.w3.org/1999/xlink">
<g><path style="opacity:0.932" fill="#fefffe" d="M 18.5,14.5 C 23.1508,15.2395 24.6508,17.9062 23,22.5C 21.5,24 20,25.5 18.5,27C 31.8333,27.3333 45.1667,27.6667 58.5,28C 59.5914,30.0639 59.7581,32.2305 59,34.5C 45.575,35.3239 32.075,35.8239 18.5,36C 20,37.5 21.5,39 23,40.5C 24.8333,46.6667 22.6667,48.8333 16.5,47C 12.3333,42.8333 8.16667,38.6667 4,34.5C 3.33333,32.5 3.33333,30.5 4,28.5C 8.72867,23.6025 13.562,18.9359 18.5,14.5 Z"/></g>
</svg>
