<?xml version="1.0" encoding="UTF-8"?>
<!DOCTYPE svg PUBLIC "-//W3C//DTD SVG 1.1//EN" "http://www.w3.org/Graphics/SVG/1.1/DTD/svg11.dtd">
<svg xmlns="http://www.w3.org/2000/svg" version="1.1" width="64px" height="64px" style="shape-rendering:geometricPrecision; text-rendering:geometricPrecision; image-rendering:optimizeQuality; fill-rule:evenodd; clip-rule:evenodd" xmlns:xlink="http://www.w3.org/1999/xlink">
<g><path style="opacity:0.949" fill="#313130" d="M 63.5,40.5 C 63.5,41.5 63.5,42.5 63.5,43.5C 60.9781,44.6649 60.9781,45.9982 63.5,47.5C 63.5,48.5 63.5,49.5 63.5,50.5C 62.448,50.3505 61.448,50.5172 60.5,51C 58.9499,54.4462 56.2832,56.4462 52.5,57C 38.5,57.6667 24.5,57.6667 10.5,57C 6.7168,56.4462 4.05013,54.4462 2.5,51C 1.55198,50.5172 0.551975,50.3505 -0.5,50.5C -0.5,49.5 -0.5,48.5 -0.5,47.5C 2.02195,45.9982 2.02195,44.6649 -0.5,43.5C -0.5,42.5 -0.5,41.5 -0.5,40.5C 1.13395,34.5105 2.30062,28.1772 3,21.5C 4.70799,19.4565 6.70799,17.7899 9,16.5C 10.1524,13.5597 11.1524,10.5597 12,7.5C 12.6891,6.64332 13.5224,5.97665 14.5,5.5C 18.1667,8.5 21.5,11.8333 24.5,15.5C 28.7953,16.6609 33.1287,16.8275 37.5,16C 40.069,13.5206 42.4023,10.854 44.5,8C 46.0548,6.71066 47.7215,6.04399 49.5,6C 51.643,8.75782 52.8097,11.9245 53,15.5C 55.6277,17.1255 57.961,19.1255 60,21.5C 60.6994,28.1772 61.866,34.5105 63.5,40.5 Z"/></g>
<g><path style="opacity:1" fill="#e0bf13" d="M 14.5,24.5 C 21.1411,24.6389 23.9745,27.9722 23,34.5C 18.8641,39.7194 14.8641,39.7194 11,34.5C 9.58117,30.0823 10.7478,26.7489 14.5,24.5 Z"/></g>
<g><path style="opacity:1" fill="#e2c00f" d="M 43.5,24.5 C 50.8798,24.043 53.7131,27.3763 52,34.5C 48.1359,39.7194 44.1359,39.7194 40,34.5C 39.3333,32.5 39.3333,30.5 40,28.5C 41.3756,27.2949 42.5423,25.9616 43.5,24.5 Z"/></g>
<g><path style="opacity:1" fill="#fdfdfd" d="M 15.5,27.5 C 15.5,28.8333 14.8333,29.5 13.5,29.5C 13.5,28.1667 14.1667,27.5 15.5,27.5 Z"/></g>
<g><path style="opacity:1" fill="#100e07" d="M 15.5,27.5 C 19.4866,27.6518 20.9866,29.6518 20,33.5C 15.4777,36.4818 13.311,35.1484 13.5,29.5C 14.8333,29.5 15.5,28.8333 15.5,27.5 Z"/></g>
<g><path style="opacity:1" fill="#dfdedd" d="M 45.5,27.5 C 45.1788,29.0481 44.1788,29.7148 42.5,29.5C 42.8212,27.9519 43.8212,27.2852 45.5,27.5 Z"/></g>
<g><path style="opacity:1" fill="#120f05" d="M 45.5,27.5 C 46.8221,27.33 47.9887,27.6634 49,28.5C 49.8077,30.5787 49.641,32.5787 48.5,34.5C 44.2008,35.8804 42.2008,34.2137 42.5,29.5C 44.1788,29.7148 45.1788,29.0481 45.5,27.5 Z"/></g>
<g><path style="opacity:1" fill="#ac1c4a" d="M 30.5,40.5 C 32.337,40.6395 32.6704,41.3061 31.5,42.5C 30.7025,42.0431 30.3691,41.3764 30.5,40.5 Z"/></g>
</svg>
