<?xml version="1.0" encoding="UTF-8"?>
<!DOCTYPE svg PUBLIC "-//W3C//DTD SVG 1.1//EN" "http://www.w3.org/Graphics/SVG/1.1/DTD/svg11.dtd">
<svg xmlns="http://www.w3.org/2000/svg" version="1.1" width="1024px" height="1024px" style="shape-rendering:geometricPrecision; text-rendering:geometricPrecision; image-rendering:optimizeQuality; fill-rule:evenodd; clip-rule:evenodd" xmlns:xlink="http://www.w3.org/1999/xlink">
<g><path style="opacity:0.999" fill="#001e96" d="M 340.5,169.5 C 340.5,396.833 340.5,624.167 340.5,851.5C 248.167,851.5 155.833,851.5 63.5,851.5C 36.81,845.65 17.6434,830.317 6,805.5C 3.48811,798.473 1.32144,791.473 -0.5,784.5C -0.5,602.5 -0.5,420.5 -0.5,238.5C 7.24846,203.249 28.5818,180.749 63.5,171C 155.803,169.515 248.136,169.015 340.5,169.5 Z"/></g>
<g><path style="opacity:0.999" fill="#fefefe" d="M 341.5,169.5 C 454.833,169.5 568.167,169.5 681.5,169.5C 681.5,396.833 681.5,624.167 681.5,851.5C 568.167,851.5 454.833,851.5 341.5,851.5C 341.5,624.167 341.5,396.833 341.5,169.5 Z"/></g>
<g><path style="opacity:0.998" fill="#ee2436" d="M 682.5,169.5 C 774.864,169.015 867.197,169.515 959.5,171C 994.418,180.749 1015.75,203.249 1023.5,238.5C 1023.5,420.5 1023.5,602.5 1023.5,784.5C 1015.77,819.734 994.436,842.234 959.5,852C 867.197,853.485 774.864,853.985 682.5,853.5C 682.5,625.5 682.5,397.5 682.5,169.5 Z"/></g>
<g><path style="opacity:0.694" fill="#decee0" d="M 340.5,169.5 C 340.833,169.5 341.167,169.5 341.5,169.5C 341.5,396.833 341.5,624.167 341.5,851.5C 454.833,851.5 568.167,851.5 681.5,851.5C 568.167,852.167 454.833,852.833 341.5,853.5C 341.167,853.5 340.833,853.5 340.5,853.5C 340.5,852.833 340.5,852.167 340.5,851.5C 340.5,624.167 340.5,396.833 340.5,169.5 Z"/></g>
<g><path style="opacity:0.239" fill="#434da8" d="M 63.5,851.5 C 155.833,851.5 248.167,851.5 340.5,851.5C 340.5,852.167 340.5,852.833 340.5,853.5C 250.166,853.667 159.833,853.5 69.5,853C 67.2922,852.809 65.2922,852.309 63.5,851.5 Z"/></g>
<g><path style="opacity:0.22" fill="#fcc5cc" d="M 681.5,169.5 C 681.833,169.5 682.167,169.5 682.5,169.5C 682.5,397.5 682.5,625.5 682.5,853.5C 568.833,853.5 455.167,853.5 341.5,853.5C 454.833,852.833 568.167,852.167 681.5,851.5C 681.5,624.167 681.5,396.833 681.5,169.5 Z"/></g>
</svg>
