<?xml version="1.0" encoding="UTF-8"?>
<!DOCTYPE svg PUBLIC "-//W3C//DTD SVG 1.1//EN" "http://www.w3.org/Graphics/SVG/1.1/DTD/svg11.dtd">
<svg xmlns="http://www.w3.org/2000/svg" version="1.1" width="64px" height="64px" style="shape-rendering:geometricPrecision; text-rendering:geometricPrecision; image-rendering:optimizeQuality; fill-rule:evenodd; clip-rule:evenodd" xmlns:xlink="http://www.w3.org/1999/xlink">
<g><path style="opacity:0.989" fill="#cfd6d7" d="M 23.5,-0.5 C 28.8333,-0.5 34.1667,-0.5 39.5,-0.5C 40.8333,0.166667 42.1667,0.833333 43.5,1.5C 42.5,1.5 41.5,1.5 40.5,1.5C 41.3006,7.30013 44.634,10.3001 50.5,10.5C 50.4332,12.4008 50.7665,14.2341 51.5,16C 50.9444,17.0111 50.2778,17.8444 49.5,18.5C 48.3871,19.9464 48.2204,21.6131 49,23.5C 49.6708,24.2524 50.5041,24.5858 51.5,24.5C 51.7598,31.6723 49.4265,38.0056 44.5,43.5C 37.5224,42.479 33.8557,45.479 33.5,52.5C 28.6091,53.9031 23.6091,54.5698 18.5,54.5C 16.8008,54.3398 15.1341,54.5065 13.5,55C 12.7476,55.6708 12.4142,56.5041 12.5,57.5C 10.246,56.8763 8.57935,55.543 7.5,53.5C 9.5816,53.3757 11.0816,52.3757 12,50.5C 13.9246,44.984 12.0913,41.6507 6.5,40.5C 4.55475,41.1276 2.88809,42.1276 1.5,43.5C 0.833333,42.1667 0.166667,40.8333 -0.5,39.5C -0.5,34.1667 -0.5,28.8333 -0.5,23.5C 3.16667,11.1667 11.1667,3.16667 23.5,-0.5 Z"/></g>
<g><path style="opacity:1" fill="#adb3b5" d="M 43.5,1.5 C 46.9566,2.39383 49.9566,4.0605 52.5,6.5C 54.1478,8.87224 53.4811,10.2056 50.5,10.5C 44.634,10.3001 41.3006,7.30013 40.5,1.5C 41.5,1.5 42.5,1.5 43.5,1.5 Z"/></g>
<g><path style="opacity:1" fill="#b1b5b6" d="M 26.5,7.5 C 32.1132,6.07898 34.2799,8.07898 33,13.5C 27.1014,15.4334 24.9348,13.4334 26.5,7.5 Z"/></g>
<g><path style="opacity:1" fill="#bacacc" d="M 52.5,6.5 C 57.9398,11.0529 61.6065,16.7196 63.5,23.5C 63.5,23.8333 63.5,24.1667 63.5,24.5C 55.3686,25.2417 53.3686,29.2417 57.5,36.5C 59.4086,37.3482 61.4086,37.6816 63.5,37.5C 63.5,38.1667 63.5,38.8333 63.5,39.5C 59.8246,51.8421 51.8246,59.8421 39.5,63.5C 34.1667,63.5 28.8333,63.5 23.5,63.5C 21.5,62.5 19.5,61.5 17.5,60.5C 19.7288,58.9007 20.0622,56.9007 18.5,54.5C 23.6091,54.5698 28.6091,53.9031 33.5,52.5C 33.5,53.1667 33.8333,53.5 34.5,53.5C 36.9128,57.6853 40.2461,58.5187 44.5,56C 48.3883,51.9719 48.3883,48.1385 44.5,44.5C 44.5,44.1667 44.5,43.8333 44.5,43.5C 49.4265,38.0056 51.7598,31.6723 51.5,24.5C 55.8202,24.0408 56.4868,22.2075 53.5,19C 52.2068,18.51 50.8734,18.3433 49.5,18.5C 50.2778,17.8444 50.9444,17.0111 51.5,16C 50.7665,14.2341 50.4332,12.4008 50.5,10.5C 53.4811,10.2056 54.1478,8.87224 52.5,6.5 Z"/></g>
<g><path style="opacity:1" fill="#b0b4b5" d="M 12.5,13.5 C 22.2267,13.3011 25.2267,17.6345 21.5,26.5C 16.9119,30.8121 12.7452,30.4788 9,25.5C 7.7452,20.7378 8.91186,16.7378 12.5,13.5 Z"/></g>
<g><path style="opacity:1" fill="#abb1b2" d="M 49.5,18.5 C 50.8734,18.3433 52.2068,18.51 53.5,19C 56.4868,22.2075 55.8202,24.0408 51.5,24.5C 50.5041,24.5858 49.6708,24.2524 49,23.5C 48.2204,21.6131 48.3871,19.9464 49.5,18.5 Z"/></g>
<g><path style="opacity:1" fill="#9ca6a9" d="M 63.5,24.5 C 63.5,28.8333 63.5,33.1667 63.5,37.5C 61.4086,37.6816 59.4086,37.3482 57.5,36.5C 53.3686,29.2417 55.3686,25.2417 63.5,24.5 Z"/></g>
<g><path style="opacity:1" fill="#b3b7b8" d="M 31.5,30.5 C 34.5,30.1667 35.8333,31.5 35.5,34.5C 31.56,35.234 30.2266,33.9007 31.5,30.5 Z"/></g>
<g><path style="opacity:1" fill="#b3b8b9" d="M 41.5,33.5 C 45.2349,33.5458 46.5683,35.2125 45.5,38.5C 43.3561,39.9535 41.5227,39.6201 40,37.5C 39.7003,35.9343 40.2003,34.601 41.5,33.5 Z"/></g>
<g><path style="opacity:1" fill="#b1b6b7" d="M 7.5,53.5 C 4.4977,50.8388 2.4977,47.5055 1.5,43.5C 2.88809,42.1276 4.55475,41.1276 6.5,40.5C 12.0913,41.6507 13.9246,44.984 12,50.5C 11.0816,52.3757 9.5816,53.3757 7.5,53.5 Z"/></g>
<g><path style="opacity:1" fill="#b0b4b6" d="M 44.5,43.5 C 44.5,43.8333 44.5,44.1667 44.5,44.5C 41.883,47.147 38.883,49.3137 35.5,51C 34.7476,51.6708 34.4142,52.5041 34.5,53.5C 33.8333,53.5 33.5,53.1667 33.5,52.5C 33.8557,45.479 37.5224,42.479 44.5,43.5 Z"/></g>
<g><path style="opacity:1" fill="#9ca5a8" d="M 44.5,44.5 C 48.3883,48.1385 48.3883,51.9719 44.5,56C 40.2461,58.5187 36.9128,57.6853 34.5,53.5C 34.4142,52.5041 34.7476,51.6708 35.5,51C 38.883,49.3137 41.883,47.147 44.5,44.5 Z"/></g>
<g><path style="opacity:1" fill="#b2b6b7" d="M 17.5,45.5 C 20.5,45.1667 21.8333,46.5 21.5,49.5C 20.1667,49.5 18.8333,49.5 17.5,49.5C 17.5,48.1667 17.5,46.8333 17.5,45.5 Z"/></g>
<g><path style="opacity:1" fill="#a0a9ac" d="M 18.5,54.5 C 20.0622,56.9007 19.7288,58.9007 17.5,60.5C 15.326,60.2503 13.6594,59.2503 12.5,57.5C 12.4142,56.5041 12.7476,55.6708 13.5,55C 15.1341,54.5065 16.8008,54.3398 18.5,54.5 Z"/></g>
</svg>
