<?xml version="1.0" encoding="UTF-8"?>
<!DOCTYPE svg PUBLIC "-//W3C//DTD SVG 1.1//EN" "http://www.w3.org/Graphics/SVG/1.1/DTD/svg11.dtd">
<svg xmlns="http://www.w3.org/2000/svg" version="1.1" width="1200px" height="1200px" style="shape-rendering:geometricPrecision; text-rendering:geometricPrecision; image-rendering:optimizeQuality; fill-rule:evenodd; clip-rule:evenodd" xmlns:xlink="http://www.w3.org/1999/xlink">
<g><path style="opacity:1" fill="#d9040d" d="M 1199.5,281.5 C 1199.5,493.5 1199.5,705.5 1199.5,917.5C 1190.01,962.489 1162.68,989.655 1117.5,999C 772.167,999.667 426.833,999.667 81.5,999C 36.3203,989.653 8.98693,962.487 -0.5,917.5C -0.5,705.5 -0.5,493.5 -0.5,281.5C 8.99586,236.504 36.3292,209.338 81.5,200C 426.833,199.333 772.167,199.333 1117.5,200C 1162.67,209.338 1190,236.504 1199.5,281.5 Z"/></g>
<g><path style="opacity:1" fill="#100903" d="M 810.5,328.5 C 809.711,328.783 809.044,329.283 808.5,330C 813.352,330.815 818.019,330.648 822.5,329.5C 861.154,327.956 899.82,327.456 938.5,328C 954.2,332.032 964.366,341.865 969,357.5C 969.326,365.562 968.66,373.562 967,381.5C 965.973,384.754 964.473,387.754 962.5,390.5C 970.993,391.138 979.327,392.638 987.5,395C 996.856,398.883 1000.52,405.717 998.5,415.5C 990.524,410.671 981.857,408.005 972.5,407.5C 906.001,406.335 839.335,406.168 772.5,407C 773.044,407.717 773.711,408.217 774.5,408.5C 786.017,413.181 796.684,419.348 806.5,427C 818.471,437.97 830.138,449.304 841.5,461C 852.265,466.675 863.599,468.009 875.5,465C 878.661,463.587 881.661,461.92 884.5,460C 889.5,455.667 894.5,451.333 899.5,447C 910.983,442.501 919.483,445.668 925,456.5C 925.495,458.473 925.662,460.473 925.5,462.5C 932.674,462.012 939.674,462.845 946.5,465C 950.453,467.407 952.453,470.907 952.5,475.5C 958.984,476.336 962.817,480.003 964,486.5C 964.498,489.482 964.665,492.482 964.5,495.5C 969.315,496.16 973.149,498.494 976,502.5C 978.425,509.122 980.758,515.789 983,522.5C 984.891,530.196 982.724,536.363 976.5,541C 975.207,541.49 973.873,541.657 972.5,541.5C 974.32,550.742 971.32,557.742 963.5,562.5C 962.193,570.462 958.36,576.795 952,581.5C 951.108,575.6 949.442,569.933 947,564.5C 942.805,561.501 938.972,558.167 935.5,554.5C 928.775,568.942 917.942,573.275 903,567.5C 899.031,571.769 896.365,576.769 895,582.5C 889.728,575.58 888.228,567.913 890.5,559.5C 886.878,558.675 883.211,558.175 879.5,558C 877.695,557.028 876.028,555.861 874.5,554.5C 869.852,557.441 866.352,561.441 864,566.5C 860.718,559.473 860.718,552.473 864,545.5C 868.193,541.969 871.693,537.802 874.5,533C 876.957,531.438 879.624,530.438 882.5,530C 879.706,528.443 876.706,528.11 873.5,529C 871.167,530.167 868.833,531.333 866.5,532.5C 867.03,523.349 871.696,516.849 880.5,513C 883.7,512.899 886.7,512.232 889.5,511C 892.833,510.333 896.167,510.333 899.5,511C 907.183,513.341 914.516,516.508 921.5,520.5C 922.725,518.157 922.059,516.323 919.5,515C 903.261,505.91 885.761,501.41 867,501.5C 844.286,504.47 821.786,508.636 799.5,514C 780.218,516.464 764.051,510.631 751,496.5C 747.53,491.226 744.864,485.56 743,479.5C 740.382,485.961 739.049,492.628 739,499.5C 754.154,515.158 754.32,530.991 739.5,547C 733.01,549.498 727.01,552.832 721.5,557C 718.899,557.92 716.232,558.587 713.5,559C 698.657,560.302 683.823,560.802 669,560.5C 665.559,560.687 662.559,559.687 660,557.5C 655.047,560.102 650.047,560.102 645,557.5C 640.979,559.797 636.646,561.13 632,561.5C 630.245,565.412 630.079,569.412 631.5,573.5C 626.788,573.227 622.955,571.227 620,567.5C 617.913,562.913 617.079,558.247 617.5,553.5C 608.436,557.18 600.269,555.847 593,549.5C 590.5,552.5 588,555.5 585.5,558.5C 578.512,550.068 578.846,542.068 586.5,534.5C 587.869,531.007 586.702,528.674 583,527.5C 579.181,528.644 575.848,530.644 573,533.5C 571.902,527.141 572.902,521.141 576,515.5C 578.467,513.198 581.3,511.531 584.5,510.5C 585.702,507.132 588.035,504.966 591.5,504C 595.167,503.667 598.833,503.333 602.5,503C 598.46,500.573 594.126,498.906 589.5,498C 592.939,493.947 597.273,491.447 602.5,490.5C 612.402,492.632 620.902,497.299 628,504.5C 630.721,509.448 633.554,514.281 636.5,519C 645.467,520.847 654.467,520.847 663.5,519C 667.216,515.458 667.382,511.625 664,507.5C 653.637,496.803 642.971,486.47 632,476.5C 628.728,470.139 628.728,463.806 632,457.5C 637.289,453.88 642.289,449.88 647,445.5C 649.29,442.42 651.457,439.253 653.5,436C 645.526,435.985 637.859,437.652 630.5,441C 623.554,443.806 616.888,447.139 610.5,451C 582.54,472.647 553.873,493.313 524.5,513C 517.273,518.092 510.606,517.592 504.5,511.5C 504.249,518.456 504.082,525.456 504,532.5C 501.145,551.01 490.312,559.51 471.5,558C 468.898,557.023 466.398,555.856 464,554.5C 458.455,565.447 449.455,570.78 437,570.5C 433.188,570.592 429.521,569.925 426,568.5C 420.605,569.945 415.105,570.612 409.5,570.5C 385.876,569.721 362.21,569.554 338.5,570C 336.081,568.491 335.081,566.325 335.5,563.5C 332.881,563.768 330.381,563.435 328,562.5C 325.604,570.061 320.437,574.061 312.5,574.5C 309.523,583.822 303.189,587.822 293.5,586.5C 295.487,581.925 296.154,577.258 295.5,572.5C 288.844,569.883 285.678,564.883 286,557.5C 281.493,561.754 276.16,564.088 270,564.5C 264.817,564.909 260.817,562.909 258,558.5C 253.026,560.973 249.193,564.64 246.5,569.5C 243.753,558.376 246.253,548.709 254,540.5C 254.688,536.791 256.188,533.457 258.5,530.5C 256.495,527.97 255.161,525.137 254.5,522C 249.673,521.116 245.006,521.616 240.5,523.5C 241.392,513.739 246.725,507.239 256.5,504C 262.191,503.561 267.691,502.395 273,500.5C 281.801,500.986 289.301,504.319 295.5,510.5C 295.97,506.322 297.303,502.488 299.5,499C 297.179,495.346 294.179,492.346 290.5,490C 299.67,485.654 307.67,487.321 314.5,495C 317.376,495.438 320.043,496.438 322.5,498C 327.286,503.735 331.452,509.901 335,516.5C 335.903,517.701 337.069,518.535 338.5,519C 342.5,519.667 346.5,519.667 350.5,519C 357.167,516.667 363.833,514.333 370.5,512C 383.566,510.575 396.566,508.742 409.5,506.5C 406.681,505.257 404.014,503.757 401.5,502C 395.64,502.693 390.974,500.693 387.5,496C 377.543,496.599 369.043,493.433 362,486.5C 363.695,483.378 363.028,480.378 360,477.5C 357.174,480.484 354.841,483.817 353,487.5C 352.044,486.106 350.711,485.439 349,485.5C 345.529,486.455 342.029,486.622 338.5,486C 334.007,483.921 329.674,481.588 325.5,479C 322.084,478.107 318.917,478.607 316,480.5C 313.203,476.701 310.036,473.201 306.5,470C 301.711,468.637 297.044,466.971 292.5,465C 289.4,462.081 287.4,458.581 286.5,454.5C 279.86,453.365 275.527,449.531 273.5,443C 264.525,441.528 258.859,436.361 256.5,427.5C 251.675,425.181 248.509,421.515 247,416.5C 245.333,414.833 243.667,413.167 242,411.5C 240.091,404.106 237.591,396.94 234.5,390C 235.759,387.075 237.426,384.408 239.5,382C 239.415,380.893 239.081,379.893 238.5,379C 234.049,378.87 229.716,378.204 225.5,377C 222.104,373.468 219.438,369.468 217.5,365C 210.709,363.819 204.876,365.653 200,370.5C 200.249,356.912 207.082,348.745 220.5,346C 224.714,339.941 230.381,336.108 237.5,334.5C 238.955,327.487 236.288,322.987 229.5,321C 227.212,320.178 224.878,319.511 222.5,319C 232.586,307.697 243.586,306.697 255.5,316C 260.92,316.855 266.253,318.022 271.5,319.5C 271.673,316.821 272.673,314.487 274.5,312.5C 272.883,309.216 270.55,306.549 267.5,304.5C 273.895,300.485 280.228,300.652 286.5,305C 290.151,308.93 293.984,312.764 298,316.5C 299.009,318.025 299.509,319.692 299.5,321.5C 299.5,323.5 299.5,325.5 299.5,327.5C 300.791,327.737 301.791,327.404 302.5,326.5C 299.673,315.901 303.006,313.734 312.5,320C 316.743,325.055 319.243,330.889 320,337.5C 320.767,341.594 320.434,345.594 319,349.5C 314.561,353.938 310.894,358.938 308,364.5C 307.333,366.167 307.333,367.833 308,369.5C 318.875,380.007 330.708,389.174 343.5,397C 347.5,397.667 351.5,397.667 355.5,397C 352.823,396.751 350.49,395.751 348.5,394C 352.833,386.327 359.5,382.494 368.5,382.5C 370.754,377.413 374.254,373.413 379,370.5C 377.142,365.733 375.475,360.733 374,355.5C 372.261,346.163 375.095,338.663 382.5,333C 384.473,332.505 386.473,332.338 388.5,332.5C 387.531,324.141 391.198,319.808 399.5,319.5C 399.833,312.171 403.5,309.505 410.5,311.5C 412.662,308.506 415.328,306.006 418.5,304C 421.656,303.397 424.656,303.897 427.5,305.5C 432.862,297.059 439.029,296.392 446,303.5C 454.055,296.111 460.889,297.111 466.5,306.5C 475.723,301.947 481.39,304.613 483.5,314.5C 494.708,314.712 499.375,320.379 497.5,331.5C 507.844,333.183 512.011,339.183 510,349.5C 509.626,350.416 509.126,351.25 508.5,352C 515.714,351.55 520.548,354.717 523,361.5C 524.409,369.908 523.242,377.908 519.5,385.5C 524.607,386.083 529.607,387.083 534.5,388.5C 535.666,390.365 535.333,392.032 533.5,393.5C 534.376,394.251 535.376,394.751 536.5,395C 554.538,397.136 572.538,396.803 590.5,394C 605.508,389.082 620.841,385.415 636.5,383C 732.173,383.058 827.84,383.725 923.5,385C 931.286,381.427 935.953,375.427 937.5,367C 935.84,358.966 930.84,354.3 922.5,353C 902.833,352.333 883.167,352.333 863.5,353C 855.453,353.617 847.786,355.617 840.5,359C 835.108,364.457 830.442,370.457 826.5,377C 820.801,380.066 814.968,380.232 809,377.5C 801.629,379.799 794.129,380.133 786.5,378.5C 777.586,380.381 768.586,380.881 759.5,380C 757.22,379.767 755.22,378.934 753.5,377.5C 745.959,379.475 738.293,379.975 730.5,379C 729.667,378.167 728.833,377.333 728,376.5C 722.973,378.169 717.806,378.669 712.5,378C 707.641,377.067 702.808,376.234 698,375.5C 697.333,374.167 697.333,372.833 698,371.5C 700.5,369 703,366.5 705.5,364C 690.732,364.012 676.065,365.345 661.5,368C 639.878,370.192 618.212,370.858 596.5,370C 584.918,369.422 574.251,366.089 564.5,360C 552.791,348.417 551.625,335.917 561,322.5C 572.354,309.906 586.52,302.74 603.5,301C 629.197,300.618 654.863,300.951 680.5,302C 713.776,283.462 745.276,285.962 775,309.5C 782.953,306.071 791.119,303.238 799.5,301C 808.87,300.268 818.203,300.602 827.5,302C 833.125,303.107 833.958,305.94 830,310.5C 824.583,317.753 818.083,323.753 810.5,328.5 Z"/></g>
<g><path style="opacity:1" fill="#f8d215" d="M 802.5,374.5 C 798.629,374.815 794.962,374.482 791.5,373.5C 795.074,367.089 799.908,361.756 806,357.5C 806.483,356.552 806.649,355.552 806.5,354.5C 805.127,354.343 803.793,354.51 802.5,355C 796.291,360.378 790.958,366.545 786.5,373.5C 776.927,375.45 767.26,375.95 757.5,375C 766.438,370.23 773.105,363.397 777.5,354.5C 776.022,354.238 774.689,354.571 773.5,355.5C 763.668,370.083 750.001,376.583 732.5,375C 740.215,370.291 747.049,364.458 753,357.5C 753.49,356.207 753.657,354.873 753.5,353.5C 752.448,353.351 751.448,353.517 750.5,354C 744.034,362.238 736.034,368.571 726.5,373C 720.5,373.667 714.5,373.667 708.5,373C 707.062,372.781 705.729,372.281 704.5,371.5C 707.701,368.136 710.701,364.636 713.5,361C 713.355,360.228 713.022,359.561 712.5,359C 691.068,359.677 669.735,361.677 648.5,365C 631.517,366.333 614.517,366.666 597.5,366C 588.117,365.071 579.117,362.738 570.5,359C 559.303,351.084 556.469,340.917 562,328.5C 573.074,314.543 587.574,306.71 605.5,305C 629.541,304.837 653.541,305.503 677.5,307C 686.161,304.503 694.495,301.17 702.5,297C 727.041,290.307 749.041,294.974 768.5,311C 768.167,311.333 767.833,311.667 767.5,312C 761.733,312.563 756.066,312.063 750.5,310.5C 751.289,313.434 753.289,315.268 756.5,316C 762.237,316.789 767.903,316.456 773.5,315C 782.819,310.671 792.486,307.338 802.5,305C 810.208,304.294 817.875,304.628 825.5,306C 825.957,306.414 826.291,306.914 826.5,307.5C 815.886,320.656 802.553,330.156 786.5,336C 769.961,341.621 752.961,343.621 735.5,342C 722.874,341.856 712.208,337.356 703.5,328.5C 702.311,327.571 700.978,327.238 699.5,327.5C 699.343,328.873 699.51,330.207 700,331.5C 703.042,334.933 706.542,337.766 710.5,340C 704.687,340.724 699.02,340.058 693.5,338C 676.268,330.478 658.601,324.145 640.5,319C 625.494,315.704 610.494,315.704 595.5,319C 587.241,321.036 580.408,325.203 575,331.5C 570.747,340.737 573.247,347.571 582.5,352C 586.723,353.472 591.057,354.472 595.5,355C 606.167,355.667 616.833,355.667 627.5,355C 659.377,352.273 691.21,349.106 723,345.5C 749.942,349.654 775.775,346.154 800.5,335C 845.81,332.778 891.143,331.778 936.5,332C 957.578,337.998 966.744,351.832 964,373.5C 963.024,381.952 959.524,389.119 953.5,395C 962.543,395.192 971.543,395.859 980.5,397C 986.618,398.385 991.285,401.718 994.5,407C 988.862,405.906 983.195,404.573 977.5,403C 902.167,402.333 826.833,402.333 751.5,403C 750.167,404.333 750.167,405.667 751.5,407C 765.567,408.689 778.567,413.356 790.5,421C 808.324,433.815 824.658,448.481 839.5,465C 855.381,473.814 871.048,473.481 886.5,464C 891.5,459.667 896.5,455.333 901.5,451C 911.148,446.87 917.481,449.704 920.5,459.5C 920.43,460.772 920.097,461.938 919.5,463C 914.632,464.067 909.966,465.734 905.5,468C 904.167,469 904.167,470 905.5,471C 911.269,469.177 917.269,467.844 923.5,467C 928.833,466.333 934.167,466.333 939.5,467C 944.479,467.808 947.146,470.642 947.5,475.5C 942.336,477.266 937.002,478.266 931.5,478.5C 931.5,479.833 931.5,481.167 931.5,482.5C 938.723,480.823 946.057,479.99 953.5,480C 959.073,483.172 961.073,488.005 959.5,494.5C 955.5,494.5 951.5,494.5 947.5,494.5C 947.33,495.822 947.663,496.989 948.5,498C 953.5,498.333 958.5,498.667 963.5,499C 970.332,500.992 973.999,505.492 974.5,512.5C 968.788,512.313 963.121,512.646 957.5,513.5C 957.5,514.5 957.5,515.5 957.5,516.5C 963.509,516.334 969.509,516.501 975.5,517C 976.893,518.171 977.727,519.671 978,521.5C 978.667,525.5 978.667,529.5 978,533.5C 976.395,536.89 973.895,537.89 970.5,536.5C 967.824,531.672 963.824,529.172 958.5,529C 958.043,529.414 957.709,529.914 957.5,530.5C 959.457,532.485 961.79,533.985 964.5,535C 968.284,539.861 969.451,545.361 968,551.5C 963.464,558.844 956.964,561.344 948.5,559C 942.34,556.513 938.84,552.013 938,545.5C 935.211,542.871 933.211,543.538 932,547.5C 928.265,564.119 918.431,569.285 902.5,563C 895.716,556.764 896.049,550.764 903.5,545C 906.536,542.994 909.869,542.16 913.5,542.5C 913.5,541.167 913.5,539.833 913.5,538.5C 908.713,537.97 904.38,539.137 900.5,542C 897.011,545.339 894.011,549.006 891.5,553C 884.241,556.256 878.741,554.423 875,547.5C 873.072,541.521 874.905,537.354 880.5,535C 886.833,534.667 893.167,534.333 899.5,534C 900.337,532.989 900.67,531.822 900.5,530.5C 895.833,530.5 891.167,530.5 886.5,530.5C 883.109,520.081 886.776,514.914 897.5,515C 906.063,517.948 914.397,521.448 922.5,525.5C 927.344,523.458 928.511,520.124 926,515.5C 922.79,511.813 918.956,508.979 914.5,507C 893.917,498.185 872.584,495.519 850.5,499C 833.86,502.551 817.194,505.884 800.5,509C 782.667,512.166 767.501,507.332 755,494.5C 753.333,491.833 751.667,489.167 750,486.5C 744.01,463.841 730.176,448.008 708.5,439C 672.338,424.87 638.004,428.204 605.5,449C 595.785,457.05 585.785,464.716 575.5,472C 570.827,475.547 565.994,476.047 561,473.5C 559.274,474.648 559.441,475.815 561.5,477C 563.5,477.333 565.5,477.667 567.5,478C 564.833,479.667 562.167,481.333 559.5,483C 556.723,483.051 554.057,483.218 551.5,483.5C 552.263,484.719 553.263,485.719 554.5,486.5C 547.203,494.08 538.869,495.747 529.5,491.5C 528.167,492.5 528.167,493.5 529.5,494.5C 532.05,495.942 534.716,497.108 537.5,498C 531.783,503.386 525.616,503.886 519,499.5C 518.5,499.833 518,500.167 517.5,500.5C 519.959,503.76 523.292,505.26 527.5,505C 522.336,511.288 516.169,512.788 509,509.5C 507.555,504.277 509.055,500.11 513.5,497C 519.459,493.098 524.959,488.598 530,483.5C 530.494,481.866 530.66,480.199 530.5,478.5C 515.625,483.54 505.459,493.54 500,508.5C 499.5,514.509 499.667,520.509 500.5,526.5C 500.13,545.709 490.463,554.543 471.5,553C 467.717,551.942 464.383,550.109 461.5,547.5C 457.54,562.459 447.874,568.292 432.5,565C 434.904,561.028 435.904,556.694 435.5,552C 435.333,549.5 435.167,547 435,544.5C 433.989,543.663 432.822,543.33 431.5,543.5C 432.011,550.042 431.178,556.376 429,562.5C 424.177,564.974 419.011,565.974 413.5,565.5C 410.167,565.333 406.833,565.167 403.5,565C 406.008,558.431 407.008,551.597 406.5,544.5C 405.167,544.5 403.833,544.5 402.5,544.5C 403.951,552.422 401.951,559.255 396.5,565C 392.5,565.667 388.5,565.667 384.5,565C 385.863,563.055 386.697,560.888 387,558.5C 387.499,554.179 387.666,549.846 387.5,545.5C 386.167,545.5 384.833,545.5 383.5,545.5C 386.502,562.166 379.835,568.5 363.5,564.5C 365.993,558.415 366.993,552.082 366.5,545.5C 365.167,545.5 363.833,545.5 362.5,545.5C 362.893,551.678 362.06,557.678 360,563.5C 359.25,564.126 358.416,564.626 357.5,565C 351.804,565.83 346.137,565.663 340.5,564.5C 341.767,562.629 341.767,560.796 340.5,559C 337.167,559 333.833,559 330.5,559C 328.963,557.89 328.297,556.39 328.5,554.5C 327.178,554.33 326.011,554.663 325,555.5C 324.366,565.971 318.866,570.971 308.5,570.5C 303.239,570.435 298.239,569.268 293.5,567C 290.428,562.745 289.928,558.245 292,553.5C 294.522,549.645 297.689,546.478 301.5,544C 301.333,542.5 300.5,541.667 299,541.5C 294.564,543.601 291.064,546.768 288.5,551C 283.666,554.252 278.666,557.252 273.5,560C 269.495,561.098 265.995,560.265 263,557.5C 258.035,550.189 257.369,542.522 261,534.5C 266.675,531.351 272.675,530.684 279,532.5C 282.448,533.061 283.615,531.894 282.5,529C 276.167,527.442 269.834,527.276 263.5,528.5C 259.686,525.813 258.52,522.147 260,517.5C 262.538,506.309 269.371,502.476 280.5,506C 285.384,508.22 289.718,511.22 293.5,515C 296.014,516.252 298.68,516.752 301.5,516.5C 299.091,500.766 305.424,495.933 320.5,502C 324.125,507.415 327.625,512.915 331,518.5C 333.817,522.075 337.484,524.075 342,524.5C 352.428,522.709 362.595,519.875 372.5,516C 392.742,514.182 412.742,510.849 432.5,506C 435.833,504.667 439.167,503.333 442.5,502C 445.385,499.606 448.385,497.439 451.5,495.5C 464.044,498.483 474.877,495.483 484,486.5C 486.192,481.381 487.692,476.048 488.5,470.5C 493.25,468.583 496.917,465.416 499.5,461C 520.006,459.811 527.672,449.311 522.5,429.5C 525.985,429.311 529.652,429.311 533.5,429.5C 532.799,418.964 529.132,409.63 522.5,401.5C 524.879,399.958 527.379,398.625 530,397.5C 541.212,401.171 552.712,402.337 564.5,401C 573.199,400.263 581.866,399.263 590.5,398C 606.589,393.228 622.923,389.561 639.5,387C 734.504,387.304 829.504,387.97 924.5,389C 937.057,384.051 942.557,374.884 941,361.5C 937.47,354.81 931.97,350.643 924.5,349C 903.167,348.333 881.833,348.333 860.5,349C 850.988,349.689 842.321,352.689 834.5,358C 830.774,362.728 827.441,367.728 824.5,373C 820.625,374.52 816.625,374.854 812.5,374C 812.043,373.586 811.709,373.086 811.5,372.5C 814.725,366.77 818.891,361.77 824,357.5C 824.601,356.035 824.101,355.035 822.5,354.5C 816.112,359.392 810.946,365.392 807,372.5C 805.67,373.582 804.17,374.249 802.5,374.5 Z"/></g>
<g><path style="opacity:1" fill="#f5cf15" d="M 429.5,317.5 C 429.783,318.289 430.283,318.956 431,319.5C 431.498,316.183 431.665,312.85 431.5,309.5C 432.996,303.289 436.496,301.955 442,305.5C 443.528,308.417 444.861,311.417 446,314.5C 447.139,311.417 448.472,308.417 450,305.5C 454.797,301.198 458.797,301.864 462,307.5C 462.333,311.167 462.667,314.833 463,318.5C 465.045,315.577 467.212,312.743 469.5,310C 472.54,307.845 475.373,308.012 478,310.5C 478.333,314.167 478.667,317.833 479,321.5C 483.399,318.894 487.733,318.894 492,321.5C 492.985,323.366 493.485,325.366 493.5,327.5C 493.121,330.582 492.454,333.582 491.5,336.5C 497.692,334.35 502.525,336.017 506,341.5C 505.987,348.044 503.821,353.878 499.5,359C 514.724,352.878 521.224,358.044 519,374.5C 517.76,379.479 515.594,383.979 512.5,388C 512.905,388.945 513.572,389.612 514.5,390C 519.202,390.172 523.868,390.672 528.5,391.5C 524.965,396.441 520.298,398.275 514.5,397C 511.969,400.234 512.969,402.234 517.5,403C 524.194,408.575 527.528,415.741 527.5,424.5C 525.011,424.702 522.677,424.202 520.5,423C 516.695,417.029 512.695,411.196 508.5,405.5C 505.984,404.051 504.817,404.718 505,407.5C 511.543,415.25 516.543,423.917 520,433.5C 522.398,448.477 516.231,455.81 501.5,455.5C 502.628,448.884 502.795,442.218 502,435.5C 501.477,433.777 500.477,432.444 499,431.5C 496.005,432.518 495.672,434.184 498,436.5C 498.788,443.556 498.455,450.556 497,457.5C 495,462.167 491.667,465.5 487,467.5C 485.303,461.774 482.803,456.441 479.5,451.5C 478.311,450.571 476.978,450.238 475.5,450.5C 477.371,455.915 479.538,461.248 482,466.5C 485.404,480.875 479.904,489.375 465.5,492C 461.375,492.854 457.375,492.52 453.5,491C 460.846,476.433 461.346,461.599 455,446.5C 453.644,445.62 452.144,445.286 450.5,445.5C 456.842,459.435 457.008,473.435 451,487.5C 444.982,496.599 436.482,501.766 425.5,503C 421.5,503.667 417.5,503.667 413.5,503C 406.281,501.526 405.948,499.526 412.5,497C 422.708,487.586 428.708,475.919 430.5,462C 429.667,459.5 428.167,459 426,460.5C 424.676,475.664 417.843,487.497 405.5,496C 401.452,497.793 397.452,497.793 393.5,496C 392.643,495.311 391.977,494.478 391.5,493.5C 398.644,487.878 402.644,480.545 403.5,471.5C 402.178,471.33 401.011,471.663 400,472.5C 397.129,484.734 389.629,490.901 377.5,491C 374.048,490.108 371.048,488.442 368.5,486C 372.422,482.749 375.588,478.916 378,474.5C 379.318,471.594 379.652,468.594 379,465.5C 378.326,464.422 377.326,463.755 376,463.5C 366.649,466.003 358.982,471.003 353,478.5C 351.133,454.076 361.633,437.91 384.5,430C 383.956,428.053 382.623,427.22 380.5,427.5C 372.041,429.648 364.874,433.982 359,440.5C 355.606,444.898 352.606,449.565 350,454.5C 345.48,437.343 350.98,424.843 366.5,417C 366.333,415.5 365.5,414.667 364,414.5C 355.841,416.658 350.174,421.658 347,429.5C 345.656,422.612 346.99,416.278 351,410.5C 355.068,406.263 359.235,402.263 363.5,398.5C 363.471,396.971 362.804,395.804 361.5,395C 353.729,393.046 353.729,390.712 361.5,388C 365.152,387.501 368.818,387.335 372.5,387.5C 372.298,385.011 372.798,382.677 374,380.5C 377.323,378.176 380.323,375.509 383,372.5C 383.667,370.5 383.667,368.5 383,366.5C 377.926,357.789 377.259,348.789 381,339.5C 384.84,335.837 389.006,335.504 393.5,338.5C 394.167,338.167 394.833,337.833 395.5,337.5C 392.951,334.198 392.118,330.531 393,326.5C 396.864,323.75 400.531,324.084 404,327.5C 402.29,313.49 406.29,311.823 416,322.5C 415.722,318.861 415.722,315.194 416,311.5C 418.21,308.71 421.044,307.877 424.5,309C 427.072,311.313 428.739,314.146 429.5,317.5 Z"/></g>
<g><path style="opacity:1" fill="#025186" d="M 273.5,304.5 C 278.139,304.046 282.139,305.38 285.5,308.5C 283.041,309.326 280.541,309.993 278,310.5C 275.899,308.906 274.399,306.906 273.5,304.5 Z"/></g>
<g><path style="opacity:1" fill="#02568f" d="M 236.5,312.5 C 241.711,312.016 246.378,313.349 250.5,316.5C 246.572,318.43 242.905,320.763 239.5,323.5C 236.163,320.829 232.496,318.663 228.5,317C 231.099,315.205 233.766,313.705 236.5,312.5 Z"/></g>
<g><path style="opacity:1" fill="#f8d215" d="M 345.5,401.5 C 347.5,402.167 349.5,402.833 351.5,403.5C 347.669,407.511 344.836,412.178 343,417.5C 342.382,428.524 342.715,439.524 344,450.5C 347.301,460.642 348.468,470.975 347.5,481.5C 345.232,482.544 342.899,482.711 340.5,482C 335.373,479.603 330.373,476.936 325.5,474C 322.428,473.544 319.428,473.544 316.5,474C 314.041,471.554 311.708,469.054 309.5,466.5C 315.17,463.845 318.504,459.512 319.5,453.5C 318.325,453.281 317.325,453.614 316.5,454.5C 311.146,464.036 303.813,466.202 294.5,461C 292.968,458.966 291.635,456.799 290.5,454.5C 296.19,452.742 300.69,449.408 304,444.5C 304.5,442.333 303.667,441.5 301.5,442C 296.894,449.14 290.561,451.474 282.5,449C 279.445,446.924 278.445,444.258 279.5,441C 285.471,439.548 289.471,436.048 291.5,430.5C 287.057,433.224 282.391,435.724 277.5,438C 268.491,439.159 262.825,435.326 260.5,426.5C 264.875,424.988 269.208,423.321 273.5,421.5C 274.386,420.675 274.719,419.675 274.5,418.5C 270.832,419.556 267.165,420.722 263.5,422C 259.191,423.198 255.524,422.198 252.5,419C 259.239,418.423 265.239,416.09 270.5,412C 269.975,411.308 269.308,410.808 268.5,410.5C 263.308,414.021 257.641,415.187 251.5,414C 247.081,411.758 244.414,408.258 243.5,403.5C 247.054,403.85 250.388,403.184 253.5,401.5C 254.386,400.675 254.719,399.675 254.5,398.5C 251.972,399.011 249.472,399.678 247,400.5C 245.774,400.355 244.607,400.022 243.5,399.5C 242.012,396.693 240.679,393.859 239.5,391C 243.501,386.918 244.501,382.085 242.5,376.5C 241.975,375.808 241.308,375.308 240.5,375C 231.752,376.881 225.919,373.714 223,365.5C 219.98,352.203 224.813,343.203 237.5,338.5C 241.504,339.747 244.67,342.08 247,345.5C 249.275,350.267 250.775,355.267 251.5,360.5C 252.833,360.5 254.167,360.5 255.5,360.5C 255.02,353.244 252.853,346.577 249,340.5C 238.483,332.726 239.316,326.226 251.5,321C 258.791,319.817 265.458,321.317 271.5,325.5C 268.029,332.249 267.529,339.249 270,346.5C 272.167,348 273.667,347.5 274.5,345C 273.422,342.433 272.755,339.767 272.5,337C 274.551,330.296 276.051,323.463 277,316.5C 286.485,310.826 292.652,313.326 295.5,324C 294.579,327.613 292.745,330.78 290,333.5C 286.896,338.44 285.896,343.774 287,349.5C 288.079,351.394 289.413,351.727 291,350.5C 289.709,334.777 296.542,328.944 311.5,333C 315.417,336.328 316.917,340.495 316,345.5C 311.611,350.889 307.611,356.556 304,362.5C 303.333,365.5 303.333,368.5 304,371.5C 314.207,380.709 324.707,389.543 335.5,398C 338.487,400.082 341.821,401.249 345.5,401.5 Z"/></g>
<g><path style="opacity:1" fill="#84700a" d="M 431.5,309.5 C 431.665,312.85 431.498,316.183 431,319.5C 430.283,318.956 429.783,318.289 429.5,317.5C 430.167,314.833 430.833,312.167 431.5,309.5 Z"/></g>
<g><path style="opacity:1" fill="#024f83" d="M 305.5,320.5 C 310.527,321.835 313.193,324.835 313.5,329.5C 311.453,327.985 309.119,327.151 306.5,327C 305.577,324.959 305.244,322.792 305.5,320.5 Z"/></g>
<g><path style="opacity:1" fill="#d5040d" d="M 610.5,320.5 C 623.083,319.988 635.417,321.488 647.5,325C 664.415,331.627 681.415,337.96 698.5,344C 677.231,346.66 655.897,348.66 634.5,350C 618.787,350.919 603.121,350.586 587.5,349C 578.488,347.138 575.654,341.972 579,333.5C 581.592,330.238 584.759,327.738 588.5,326C 595.763,323.321 603.097,321.487 610.5,320.5 Z"/></g>
<g><path style="opacity:1" fill="#6a0206" d="M 299.5,321.5 C 299.972,323.531 300.972,325.198 302.5,326.5C 301.791,327.404 300.791,327.737 299.5,327.5C 299.5,325.5 299.5,323.5 299.5,321.5 Z"/></g>
<g><path style="opacity:1" fill="#0e0b04" d="M 437.5,328.5 C 439.346,328.222 440.68,328.889 441.5,330.5C 439.852,340.132 435.352,348.132 428,354.5C 425.928,357.932 425.262,361.598 426,365.5C 427.011,366.337 428.178,366.67 429.5,366.5C 429.67,367.822 429.337,368.989 428.5,370C 422.552,369.929 420.552,372.596 422.5,378C 424.568,378.687 426.568,378.52 428.5,377.5C 429.314,379.766 429.814,382.1 430,384.5C 432.706,387.978 435.706,388.311 439,385.5C 440.289,382.649 440.789,379.649 440.5,376.5C 443.141,377.263 445.808,377.43 448.5,377C 449.86,375.062 449.527,373.396 447.5,372C 445.341,371.088 443.175,370.255 441,369.5C 440.51,368.207 440.343,366.873 440.5,365.5C 442.167,365.5 443.833,365.5 445.5,365.5C 444.932,359.166 444.766,352.833 445,346.5C 446.561,343.217 448.727,340.383 451.5,338C 453.319,337.217 454.652,337.717 455.5,339.5C 454.52,340.981 453.353,342.315 452,343.5C 451.312,344.332 451.479,344.998 452.5,345.5C 460.355,342.133 467.522,343.133 474,348.5C 475.928,354.479 474.095,358.646 468.5,361C 462.128,362.22 456.128,361.387 450.5,358.5C 449.167,361.833 449.167,365.167 450.5,368.5C 453.305,371.236 454.138,374.57 453,378.5C 450.695,380.93 447.862,381.93 444.5,381.5C 444.477,386.69 441.977,390.023 437,391.5C 435.551,398.294 438.218,401.961 445,402.5C 450.966,402.181 455.633,399.515 459,394.5C 459.801,390.806 460.968,387.306 462.5,384C 471.137,385.009 478.137,382.176 483.5,375.5C 487.795,374.339 492.129,374.172 496.5,375C 497.337,376.011 497.67,377.178 497.5,378.5C 493.818,378.335 490.152,378.501 486.5,379C 479.287,385.287 475.954,393.287 476.5,403C 476.353,407.001 477.02,410.834 478.5,414.5C 478.281,416.915 476.948,417.915 474.5,417.5C 471.834,407.842 471.834,398.176 474.5,388.5C 471.588,387.932 468.588,387.932 465.5,388.5C 463.047,395.644 461.214,402.977 460,410.5C 458.128,417.915 454.462,424.248 449,429.5C 447.742,427.236 446.575,424.902 445.5,422.5C 442.617,429.933 438.951,436.933 434.5,443.5C 425.464,450.634 416.297,450.968 407,444.5C 406.042,442.801 405.542,440.967 405.5,439C 407.283,430.904 408.117,422.738 408,414.5C 407.117,417.102 405.617,419.269 403.5,421C 402.668,421.688 402.002,421.521 401.5,420.5C 397.768,411.791 396.601,402.791 398,393.5C 396.266,395.451 394.099,396.451 391.5,396.5C 394.16,393.761 396.494,390.594 398.5,387C 395.183,381.201 392.85,375.035 391.5,368.5C 393.39,368.297 394.89,368.963 396,370.5C 397.374,378.445 401.541,384.278 408.5,388C 411.167,391 413.833,394 416.5,397C 421.363,399.329 425.863,398.829 430,395.5C 430.638,394.391 431.138,393.225 431.5,392C 428.955,389.953 426.955,387.453 425.5,384.5C 418.781,382.628 415.948,378.295 417,371.5C 418,369.833 419.333,368.5 421,367.5C 421.465,363.152 421.965,358.819 422.5,354.5C 415.634,355.051 410.134,352.717 406,347.5C 405.333,344.833 405.333,342.167 406,339.5C 406.903,338.299 408.069,337.465 409.5,337C 418.015,335.052 425.515,336.886 432,342.5C 434.744,338.192 436.577,333.525 437.5,328.5 Z"/></g>
<g><path style="opacity:1" fill="#570205" d="M 810.5,328.5 C 814.298,329.483 818.298,329.817 822.5,329.5C 818.019,330.648 813.352,330.815 808.5,330C 809.044,329.283 809.711,328.783 810.5,328.5 Z"/></g>
<g><path style="opacity:1" fill="#eec914" d="M 410.5,340.5 C 412.527,340.338 414.527,340.505 416.5,341C 415.192,343.355 414.192,345.855 413.5,348.5C 409.529,347.003 408.529,344.336 410.5,340.5 Z"/></g>
<g><path style="opacity:1" fill="#efca14" d="M 424.5,342.5 C 429.81,345.165 429.644,347.832 424,350.5C 423.5,350.167 423,349.833 422.5,349.5C 423.577,347.271 424.244,344.937 424.5,342.5 Z"/></g>
<g><path style="opacity:1" fill="#0a0802" d="M 383.5,342.5 C 387.296,343.8 389.463,346.467 390,350.5C 390.667,354.5 390.667,358.5 390,362.5C 389.586,362.957 389.086,363.291 388.5,363.5C 387.672,359.204 387.172,354.871 387,350.5C 385.555,347.91 384.388,345.243 383.5,342.5 Z"/></g>
<g><path style="opacity:1" fill="#eac614" d="M 454.5,348.5 C 456.369,350.635 457.036,353.302 456.5,356.5C 449.714,354.983 449.047,352.316 454.5,348.5 Z"/></g>
<g><path style="opacity:1" fill="#e7c313" d="M 465.5,348.5 C 469.976,348.822 471.476,351.156 470,355.5C 468.308,357.245 466.475,357.578 464.5,356.5C 465.393,353.916 465.726,351.249 465.5,348.5 Z"/></g>
<g><path style="opacity:1" fill="#025993" d="M 214.5,350.5 C 215.978,350.238 217.311,350.571 218.5,351.5C 217.583,354.758 217.249,358.091 217.5,361.5C 213.288,361.078 209.288,361.744 205.5,363.5C 204.432,361.813 204.599,360.146 206,358.5C 208.729,355.601 211.562,352.934 214.5,350.5 Z"/></g>
<g><path style="opacity:1" fill="#141004" d="M 510.5,362.5 C 511.5,362.5 512.5,362.5 513.5,362.5C 509.614,368.173 507.947,374.506 508.5,381.5C 507.5,381.5 506.5,381.5 505.5,381.5C 504.534,374.409 506.201,368.076 510.5,362.5 Z"/></g>
<g><path style="opacity:1" fill="#8c760b" d="M 791.5,373.5 C 794.962,374.482 798.629,374.815 802.5,374.5C 798.649,375.809 794.649,375.809 790.5,374.5C 790.624,373.893 790.957,373.56 791.5,373.5 Z"/></g>
<g><path style="opacity:1" fill="#ecc714" d="M 402.5,390.5 C 406.485,391.152 408.819,393.485 409.5,397.5C 408.904,403.686 406.904,409.352 403.5,414.5C 401.957,410.87 401.291,407.037 401.5,403C 401.658,398.808 401.991,394.641 402.5,390.5 Z"/></g>
<g><path style="opacity:1" fill="#806b09" d="M 345.5,401.5 C 347.924,401.192 350.257,401.526 352.5,402.5C 352.376,403.107 352.043,403.44 351.5,403.5C 349.5,402.833 347.5,402.167 345.5,401.5 Z"/></g>
<g><path style="opacity:1" fill="#025b96" d="M 431.5,400.5 C 433.178,401.747 434.511,403.414 435.5,405.5C 437.547,407.015 439.881,407.849 442.5,408C 443.022,408.561 443.355,409.228 443.5,410C 441.552,420.064 438.052,429.564 433,438.5C 426.334,444.98 419.001,445.98 411,441.5C 412.227,428.556 413.06,415.556 413.5,402.5C 418.42,404.797 423.42,404.964 428.5,403C 429.942,402.623 430.942,401.79 431.5,400.5 Z"/></g>
<g><path style="opacity:1" fill="#efca14" d="M 456.5,402.5 C 456.91,409.777 454.743,416.444 450,422.5C 448.325,417.222 448.159,411.889 449.5,406.5C 452.349,405.9 454.682,404.567 456.5,402.5 Z"/></g>
<g><path style="opacity:1" fill="#3b0203" d="M 972.5,407.5 C 906.331,407.168 840.331,407.501 774.5,408.5C 773.711,408.217 773.044,407.717 772.5,407C 839.335,406.168 906.001,406.335 972.5,407.5 Z"/></g>
<g><path style="opacity:1" fill="#1c1706" d="M 485.5,425.5 C 487.752,425.916 489.252,427.249 490,429.5C 493.956,437.405 494.289,445.405 491,453.5C 490.218,456.188 488.718,457.188 486.5,456.5C 490.273,450.331 491.44,443.665 490,436.5C 488.487,432.812 486.987,429.145 485.5,425.5 Z"/></g>
<g><path style="opacity:1" fill="#f8d115" d="M 713.5,554.5 C 710.941,554.802 708.607,554.468 706.5,553.5C 709.717,547.962 711.05,541.962 710.5,535.5C 709.5,535.5 708.5,535.5 707.5,535.5C 707.624,552.049 699.624,558.716 683.5,555.5C 688.111,549.662 690.111,542.995 689.5,535.5C 688.5,535.5 687.5,535.5 686.5,535.5C 686.871,551.807 679.204,558.141 663.5,554.5C 668.002,548.997 670.335,542.664 670.5,535.5C 669.167,535.5 667.833,535.5 666.5,535.5C 666.537,542.262 664.204,548.095 659.5,553C 655.583,554.691 651.583,554.857 647.5,553.5C 651.192,548.408 653.525,542.741 654.5,536.5C 654.167,535.5 653.5,534.833 652.5,534.5C 649.971,540.212 647.137,545.879 644,551.5C 637.876,557.181 631.042,558.014 623.5,554C 622.17,551.123 622.336,548.289 624,545.5C 626.786,542.112 630.119,539.446 634,537.5C 634.483,536.552 634.649,535.552 634.5,534.5C 631.774,534.264 629.441,535.097 627.5,537C 623.076,541.085 619.076,545.418 615.5,550C 604.823,553.667 596.99,550.5 592,540.5C 591.302,533.387 593.802,527.554 599.5,523C 603.848,522.336 607.514,523.669 610.5,527C 611.793,527.49 613.127,527.657 614.5,527.5C 614.703,525.61 614.037,524.11 612.5,523C 603.939,517.372 596.606,518.539 590.5,526.5C 589.522,526.023 588.689,525.357 588,524.5C 585.928,509.575 592.094,504.408 606.5,509C 610.687,511.068 614.687,513.234 618.5,515.5C 618.822,513.278 618.155,511.444 616.5,510C 613.383,508.027 610.216,506.193 607,504.5C 605.927,500.905 607.261,498.905 611,498.5C 621.764,501.976 628.43,509.31 631,520.5C 632.579,522.041 634.413,523.208 636.5,524C 645.862,524.628 655.195,524.295 664.5,523C 668.987,521.7 670.987,518.7 670.5,514C 670.506,511.7 670.006,509.534 669,507.5C 658.667,495.833 647.667,484.833 636,474.5C 633.702,470.782 633.035,466.782 634,462.5C 639.616,457.558 645.282,452.558 651,447.5C 653.93,443.575 656.43,439.408 658.5,435C 666.577,434.315 674.577,434.815 682.5,436.5C 682.807,443.286 685.807,448.453 691.5,452C 702.805,453.702 714.139,455.369 725.5,457C 731,459.833 735.167,464 738,469.5C 737.319,480.215 736.319,490.881 735,501.5C 738.726,506.228 742.059,511.228 745,516.5C 747.238,528.676 743.405,538.342 733.5,545.5C 733.258,541.92 733.091,538.253 733,534.5C 732.29,533.027 731.124,532.36 729.5,532.5C 731.433,545.348 726.099,552.681 713.5,554.5 Z"/></g>
<g><path style="opacity:1" fill="#1b1605" d="M 377.5,437.5 C 378.675,437.281 379.675,437.614 380.5,438.5C 374.251,442.411 368.585,447.078 363.5,452.5C 362.417,451.635 362.251,450.635 363,449.5C 367.149,444.503 371.983,440.503 377.5,437.5 Z"/></g>
<g><path style="opacity:1" fill="#e9c514" d="M 687.5,437.5 C 699.752,439.749 711.085,444.249 721.5,451C 712.808,450.998 704.141,450.331 695.5,449C 690.244,446.995 687.578,443.161 687.5,437.5 Z"/></g>
<g><path style="opacity:1" fill="#1d1806" d="M 462.5,446.5 C 464.903,446.393 466.736,447.393 468,449.5C 473.051,455.602 475.884,462.602 476.5,470.5C 476.596,474.118 475.762,477.451 474,480.5C 473.871,474.086 473.204,467.753 472,461.5C 469.311,456.106 466.145,451.106 462.5,446.5 Z"/></g>
<g><path style="opacity:1" fill="#1b1605" d="M 374.5,448.5 C 378.96,447.885 382.96,448.885 386.5,451.5C 382.62,451.588 378.62,451.754 374.5,452C 371.368,453.635 368.368,455.468 365.5,457.5C 365.167,457.167 364.833,456.833 364.5,456.5C 367.499,453.344 370.832,450.678 374.5,448.5 Z"/></g>
<g><path style="opacity:1" fill="#1f1a07" d="M 462.5,454.5 C 463.496,454.414 464.329,454.748 465,455.5C 470.911,465.449 471.911,475.782 468,486.5C 467.13,485.892 466.63,485.059 466.5,484C 467.597,478.54 467.764,473.04 467,467.5C 465.486,463.145 463.986,458.812 462.5,454.5 Z"/></g>
<g><path style="opacity:1" fill="#151104" d="M 439.5,460.5 C 441.045,461.23 441.878,462.563 442,464.5C 444.477,475.876 441.977,485.876 434.5,494.5C 433.417,493.635 433.251,492.635 434,491.5C 440.443,482.064 442.277,471.73 439.5,460.5 Z"/></g>
<g><path style="opacity:1" fill="#1d1806" d="M 433.5,462.5 C 434.5,462.5 435.5,462.5 436.5,462.5C 437.227,470.923 435.727,478.923 432,486.5C 431.101,488.327 429.767,489.66 428,490.5C 427.5,490.167 427,489.833 426.5,489.5C 432.904,481.635 435.237,472.635 433.5,462.5 Z"/></g>
<g><path style="opacity:1" fill="#ecc714" d="M 372.5,468.5 C 374.344,469.204 374.844,470.537 374,472.5C 372.75,475.916 370.583,478.583 367.5,480.5C 365.684,478.882 364.351,476.882 363.5,474.5C 366.393,472.228 369.393,470.228 372.5,468.5 Z"/></g>
<g><path style="opacity:1" fill="#025186" d="M 297.5,490.5 C 301.985,490.717 305.985,492.217 309.5,495C 303.664,498.05 299.664,496.55 297.5,490.5 Z"/></g>
<g><path style="opacity:1" fill="#024d81" d="M 600.5,493.5 C 602.75,493.181 604.75,493.681 606.5,495C 604.981,496.351 603.648,497.851 602.5,499.5C 600.336,498.586 598.336,497.419 596.5,496C 598.066,495.392 599.4,494.558 600.5,493.5 Z"/></g>
<g><path style="opacity:1" fill="#025790" d="M 255.5,507.5 C 256.873,507.343 258.207,507.51 259.5,508C 257.878,511.027 256.545,514.194 255.5,517.5C 251.878,518.659 248.211,518.825 244.5,518C 247.404,513.593 251.071,510.093 255.5,507.5 Z"/></g>
<g><path style="opacity:1" fill="#025185" d="M 581.5,514.5 C 583.402,517.337 584.069,520.671 583.5,524.5C 580.495,524.253 577.995,525.253 576,527.5C 575.625,522.249 577.458,517.915 581.5,514.5 Z"/></g>
<g><path style="opacity:1" fill="#02558d" d="M 881.5,515.5 C 882.239,515.369 882.906,515.536 883.5,516C 880.971,518.642 879.971,521.808 880.5,525.5C 877.111,525.632 873.777,525.799 870.5,526C 873.404,521.593 877.071,518.093 881.5,515.5 Z"/></g>
<g><path style="opacity:1" fill="#025287" d="M 586.5,538.5 C 587.903,541.227 589.237,544.061 590.5,547C 586.879,554.645 584.546,554.312 583.5,546C 583.548,543.078 584.548,540.578 586.5,538.5 Z"/></g>
<g><path style="opacity:1" fill="#02548b" d="M 869.5,543.5 C 870.132,546.362 871.132,549.196 872.5,552C 869.705,553.793 867.205,555.96 865,558.5C 863.624,552.598 865.124,547.598 869.5,543.5 Z"/></g>
<g><path style="opacity:1" fill="#025389" d="M 253.5,544.5 C 254.801,547.791 255.801,551.291 256.5,555C 253.752,556.804 251.252,558.971 249,561.5C 248.472,555.276 249.972,549.609 253.5,544.5 Z"/></g>
<g><path style="opacity:1" fill="#7f6b09" d="M 706.5,553.5 C 708.607,554.468 710.941,554.802 713.5,554.5C 710.976,555.8 708.309,555.8 705.5,554.5C 705.624,553.893 705.957,553.56 706.5,553.5 Z"/></g>
<g><path style="opacity:1" fill="#02558d" d="M 620.5,557.5 C 623.122,558.811 625.789,560.145 628.5,561.5C 627.77,564.109 627.27,566.776 627,569.5C 622.476,566.753 620.31,562.753 620.5,557.5 Z"/></g>
<g><path style="opacity:1" fill="#02558d" d="M 893.5,560.5 C 894.977,562.807 896.977,564.64 899.5,566C 897.542,568.748 895.709,571.582 894,574.5C 892.229,569.87 892.063,565.203 893.5,560.5 Z"/></g>
<g><path style="opacity:1" fill="#02558d" d="M 950.5,563.5 C 953.5,563.5 956.5,563.5 959.5,563.5C 959.02,568.126 957.187,572.126 954,575.5C 952.928,571.453 951.761,567.453 950.5,563.5 Z"/></g>
<g><path style="opacity:1" fill="#02568e" d="M 299.5,573.5 C 302.846,574.003 306.179,574.67 309.5,575.5C 306.909,579.773 303.243,582.439 298.5,583.5C 298.616,580.14 298.949,576.807 299.5,573.5 Z"/></g>
<g><path style="opacity:1" fill="#100903" d="M 810.5,650.5 C 809.711,650.783 809.044,651.283 808.5,652C 813.352,652.815 818.019,652.648 822.5,651.5C 861.154,649.956 899.82,649.456 938.5,650C 954.2,654.032 964.366,663.865 969,679.5C 969.326,687.562 968.66,695.562 967,703.5C 965.973,706.754 964.473,709.754 962.5,712.5C 970.993,713.138 979.327,714.638 987.5,717C 996.856,720.883 1000.52,727.717 998.5,737.5C 990.524,732.671 981.857,730.005 972.5,729.5C 906.001,728.335 839.335,728.168 772.5,729C 773.044,729.717 773.711,730.217 774.5,730.5C 786.017,735.181 796.684,741.348 806.5,749C 818.471,759.97 830.138,771.304 841.5,783C 852.265,788.675 863.599,790.009 875.5,787C 878.661,785.587 881.661,783.92 884.5,782C 889.5,777.667 894.5,773.333 899.5,769C 910.983,764.501 919.483,767.668 925,778.5C 925.495,780.473 925.662,782.473 925.5,784.5C 932.674,784.012 939.674,784.845 946.5,787C 950.453,789.407 952.453,792.907 952.5,797.5C 958.984,798.336 962.817,802.003 964,808.5C 964.498,811.482 964.665,814.482 964.5,817.5C 969.315,818.16 973.149,820.494 976,824.5C 978.425,831.122 980.758,837.789 983,844.5C 984.891,852.196 982.724,858.363 976.5,863C 975.207,863.49 973.873,863.657 972.5,863.5C 974.32,872.742 971.32,879.742 963.5,884.5C 962.193,892.462 958.36,898.795 952,903.5C 951.108,897.6 949.442,891.933 947,886.5C 942.805,883.501 938.972,880.167 935.5,876.5C 928.775,890.942 917.942,895.275 903,889.5C 899.031,893.769 896.365,898.769 895,904.5C 889.728,897.58 888.228,889.913 890.5,881.5C 886.878,880.675 883.211,880.175 879.5,880C 877.695,879.028 876.028,877.861 874.5,876.5C 869.852,879.441 866.352,883.441 864,888.5C 860.718,881.473 860.718,874.473 864,867.5C 868.193,863.969 871.693,859.802 874.5,855C 876.957,853.438 879.624,852.438 882.5,852C 879.706,850.443 876.706,850.11 873.5,851C 871.167,852.167 868.833,853.333 866.5,854.5C 867.03,845.349 871.696,838.849 880.5,835C 883.7,834.899 886.7,834.232 889.5,833C 892.833,832.333 896.167,832.333 899.5,833C 907.183,835.341 914.516,838.508 921.5,842.5C 922.725,840.157 922.059,838.323 919.5,837C 903.261,827.91 885.761,823.41 867,823.5C 844.286,826.47 821.786,830.636 799.5,836C 780.218,838.464 764.051,832.631 751,818.5C 747.53,813.226 744.864,807.56 743,801.5C 740.382,807.961 739.049,814.628 739,821.5C 754.154,837.158 754.32,852.991 739.5,869C 733.01,871.498 727.01,874.832 721.5,879C 718.899,879.92 716.232,880.587 713.5,881C 698.657,882.302 683.823,882.802 669,882.5C 665.559,882.687 662.559,881.687 660,879.5C 655.047,882.102 650.047,882.102 645,879.5C 640.979,881.797 636.646,883.13 632,883.5C 630.245,887.412 630.079,891.412 631.5,895.5C 626.788,895.227 622.955,893.227 620,889.5C 617.913,884.913 617.079,880.247 617.5,875.5C 608.436,879.18 600.269,877.847 593,871.5C 590.5,874.5 588,877.5 585.5,880.5C 578.512,872.068 578.846,864.068 586.5,856.5C 587.869,853.007 586.702,850.674 583,849.5C 579.181,850.644 575.848,852.644 573,855.5C 571.902,849.141 572.902,843.141 576,837.5C 578.467,835.198 581.3,833.531 584.5,832.5C 585.702,829.132 588.035,826.966 591.5,826C 595.167,825.667 598.833,825.333 602.5,825C 598.46,822.573 594.126,820.906 589.5,820C 592.939,815.947 597.273,813.447 602.5,812.5C 612.402,814.632 620.902,819.299 628,826.5C 630.721,831.448 633.554,836.281 636.5,841C 645.467,842.847 654.467,842.847 663.5,841C 667.216,837.458 667.382,833.625 664,829.5C 653.637,818.803 642.971,808.47 632,798.5C 628.728,792.139 628.728,785.806 632,779.5C 637.289,775.88 642.289,771.88 647,767.5C 649.29,764.42 651.457,761.253 653.5,758C 645.526,757.985 637.859,759.652 630.5,763C 623.554,765.806 616.888,769.139 610.5,773C 582.54,794.647 553.873,815.313 524.5,835C 517.273,840.092 510.606,839.592 504.5,833.5C 504.249,840.456 504.082,847.456 504,854.5C 501.145,873.01 490.312,881.51 471.5,880C 468.898,879.023 466.398,877.856 464,876.5C 458.455,887.447 449.455,892.78 437,892.5C 433.188,892.592 429.521,891.925 426,890.5C 420.605,891.945 415.105,892.612 409.5,892.5C 385.876,891.721 362.21,891.554 338.5,892C 336.081,890.491 335.081,888.325 335.5,885.5C 332.881,885.768 330.381,885.435 328,884.5C 325.604,892.061 320.437,896.061 312.5,896.5C 309.523,905.822 303.189,909.822 293.5,908.5C 295.487,903.925 296.154,899.258 295.5,894.5C 288.844,891.883 285.678,886.883 286,879.5C 281.493,883.754 276.16,886.088 270,886.5C 264.817,886.909 260.817,884.909 258,880.5C 253.026,882.973 249.193,886.64 246.5,891.5C 243.753,880.376 246.253,870.709 254,862.5C 254.688,858.791 256.188,855.457 258.5,852.5C 256.495,849.97 255.161,847.137 254.5,844C 249.673,843.116 245.006,843.616 240.5,845.5C 241.392,835.739 246.725,829.239 256.5,826C 262.191,825.561 267.691,824.395 273,822.5C 281.801,822.986 289.301,826.319 295.5,832.5C 295.97,828.322 297.303,824.488 299.5,821C 297.179,817.346 294.179,814.346 290.5,812C 299.67,807.654 307.67,809.321 314.5,817C 317.376,817.438 320.043,818.438 322.5,820C 327.286,825.735 331.452,831.901 335,838.5C 335.903,839.701 337.069,840.535 338.5,841C 342.5,841.667 346.5,841.667 350.5,841C 357.167,838.667 363.833,836.333 370.5,834C 383.566,832.575 396.566,830.742 409.5,828.5C 406.681,827.257 404.014,825.757 401.5,824C 395.64,824.693 390.974,822.693 387.5,818C 377.543,818.599 369.043,815.433 362,808.5C 363.695,805.378 363.028,802.378 360,799.5C 357.174,802.484 354.841,805.817 353,809.5C 352.044,808.106 350.711,807.439 349,807.5C 345.529,808.455 342.029,808.622 338.5,808C 334.007,805.921 329.674,803.588 325.5,801C 322.084,800.107 318.917,800.607 316,802.5C 313.203,798.701 310.036,795.201 306.5,792C 301.711,790.637 297.044,788.971 292.5,787C 289.4,784.081 287.4,780.581 286.5,776.5C 279.86,775.365 275.527,771.531 273.5,765C 264.525,763.528 258.859,758.361 256.5,749.5C 251.675,747.181 248.509,743.515 247,738.5C 245.333,736.833 243.667,735.167 242,733.5C 240.091,726.106 237.591,718.94 234.5,712C 235.759,709.075 237.426,706.408 239.5,704C 239.415,702.893 239.081,701.893 238.5,701C 234.049,700.87 229.716,700.204 225.5,699C 222.104,695.468 219.438,691.468 217.5,687C 210.709,685.819 204.876,687.653 200,692.5C 200.249,678.912 207.082,670.745 220.5,668C 224.714,661.941 230.381,658.108 237.5,656.5C 238.955,649.487 236.288,644.987 229.5,643C 227.212,642.178 224.878,641.511 222.5,641C 232.586,629.697 243.586,628.697 255.5,638C 260.92,638.855 266.253,640.022 271.5,641.5C 271.673,638.821 272.673,636.487 274.5,634.5C 272.883,631.216 270.55,628.549 267.5,626.5C 273.895,622.485 280.228,622.652 286.5,627C 290.151,630.93 293.984,634.764 298,638.5C 299.009,640.025 299.509,641.692 299.5,643.5C 299.5,645.5 299.5,647.5 299.5,649.5C 300.791,649.737 301.791,649.404 302.5,648.5C 299.673,637.901 303.006,635.734 312.5,642C 316.743,647.055 319.243,652.889 320,659.5C 320.767,663.594 320.434,667.594 319,671.5C 314.561,675.938 310.894,680.938 308,686.5C 307.333,688.167 307.333,689.833 308,691.5C 318.875,702.007 330.708,711.174 343.5,719C 347.5,719.667 351.5,719.667 355.5,719C 352.823,718.751 350.49,717.751 348.5,716C 352.833,708.327 359.5,704.494 368.5,704.5C 370.754,699.413 374.254,695.413 379,692.5C 377.142,687.733 375.475,682.733 374,677.5C 372.261,668.163 375.095,660.663 382.5,655C 384.473,654.505 386.473,654.338 388.5,654.5C 387.531,646.141 391.198,641.808 399.5,641.5C 399.833,634.171 403.5,631.505 410.5,633.5C 412.662,630.506 415.328,628.006 418.5,626C 421.656,625.397 424.656,625.897 427.5,627.5C 432.862,619.059 439.029,618.392 446,625.5C 454.055,618.111 460.889,619.111 466.5,628.5C 475.723,623.947 481.39,626.613 483.5,636.5C 494.708,636.712 499.375,642.379 497.5,653.5C 507.844,655.183 512.011,661.183 510,671.5C 509.626,672.416 509.126,673.25 508.5,674C 515.714,673.55 520.548,676.717 523,683.5C 524.409,691.908 523.242,699.908 519.5,707.5C 524.607,708.083 529.607,709.083 534.5,710.5C 535.666,712.365 535.333,714.032 533.5,715.5C 534.376,716.251 535.376,716.751 536.5,717C 554.538,719.136 572.538,718.803 590.5,716C 605.508,711.082 620.841,707.415 636.5,705C 732.173,705.058 827.84,705.725 923.5,707C 931.286,703.427 935.953,697.427 937.5,689C 935.84,680.966 930.84,676.3 922.5,675C 902.833,674.333 883.167,674.333 863.5,675C 855.453,675.617 847.786,677.617 840.5,681C 835.108,686.457 830.442,692.457 826.5,699C 820.801,702.066 814.968,702.232 809,699.5C 801.629,701.799 794.129,702.133 786.5,700.5C 777.586,702.381 768.586,702.881 759.5,702C 757.22,701.767 755.22,700.934 753.5,699.5C 745.959,701.475 738.293,701.975 730.5,701C 729.667,700.167 728.833,699.333 728,698.5C 722.973,700.169 717.806,700.669 712.5,700C 707.641,699.067 702.808,698.234 698,697.5C 697.333,696.167 697.333,694.833 698,693.5C 700.5,691 703,688.5 705.5,686C 690.732,686.012 676.065,687.345 661.5,690C 639.878,692.192 618.212,692.858 596.5,692C 584.918,691.422 574.251,688.089 564.5,682C 552.791,670.417 551.625,657.917 561,644.5C 572.354,631.906 586.52,624.74 603.5,623C 629.197,622.618 654.863,622.951 680.5,624C 713.776,605.462 745.276,607.962 775,631.5C 782.953,628.071 791.119,625.238 799.5,623C 808.87,622.268 818.203,622.602 827.5,624C 833.125,625.107 833.958,627.94 830,632.5C 824.583,639.753 818.083,645.753 810.5,650.5 Z"/></g>
<g><path style="opacity:1" fill="#f8d215" d="M 802.5,696.5 C 798.629,696.815 794.962,696.482 791.5,695.5C 795.074,689.089 799.908,683.756 806,679.5C 806.483,678.552 806.649,677.552 806.5,676.5C 805.127,676.343 803.793,676.51 802.5,677C 796.291,682.378 790.958,688.545 786.5,695.5C 776.927,697.45 767.26,697.95 757.5,697C 766.438,692.23 773.105,685.397 777.5,676.5C 776.022,676.238 774.689,676.571 773.5,677.5C 763.668,692.083 750.001,698.583 732.5,697C 740.215,692.291 747.049,686.458 753,679.5C 753.49,678.207 753.657,676.873 753.5,675.5C 752.448,675.351 751.448,675.517 750.5,676C 744.034,684.238 736.034,690.571 726.5,695C 720.5,695.667 714.5,695.667 708.5,695C 707.062,694.781 705.729,694.281 704.5,693.5C 707.701,690.136 710.701,686.636 713.5,683C 713.355,682.228 713.022,681.561 712.5,681C 691.068,681.677 669.735,683.677 648.5,687C 631.517,688.333 614.517,688.666 597.5,688C 588.117,687.071 579.117,684.738 570.5,681C 559.303,673.084 556.469,662.917 562,650.5C 573.074,636.543 587.574,628.71 605.5,627C 629.541,626.837 653.541,627.503 677.5,629C 686.161,626.503 694.495,623.17 702.5,619C 727.041,612.307 749.041,616.974 768.5,633C 768.167,633.333 767.833,633.667 767.5,634C 761.733,634.563 756.066,634.063 750.5,632.5C 751.289,635.434 753.289,637.268 756.5,638C 762.237,638.789 767.903,638.456 773.5,637C 782.819,632.671 792.486,629.338 802.5,627C 810.208,626.294 817.875,626.628 825.5,628C 825.957,628.414 826.291,628.914 826.5,629.5C 815.886,642.656 802.553,652.156 786.5,658C 769.961,663.621 752.961,665.621 735.5,664C 722.874,663.856 712.208,659.356 703.5,650.5C 702.311,649.571 700.978,649.238 699.5,649.5C 699.343,650.873 699.51,652.207 700,653.5C 703.042,656.933 706.542,659.766 710.5,662C 704.687,662.724 699.02,662.058 693.5,660C 676.268,652.478 658.601,646.145 640.5,641C 625.494,637.704 610.494,637.704 595.5,641C 587.241,643.036 580.408,647.203 575,653.5C 570.747,662.737 573.247,669.571 582.5,674C 586.723,675.472 591.057,676.472 595.5,677C 606.167,677.667 616.833,677.667 627.5,677C 659.377,674.273 691.21,671.106 723,667.5C 749.942,671.654 775.775,668.154 800.5,657C 845.81,654.778 891.143,653.778 936.5,654C 957.578,659.998 966.744,673.832 964,695.5C 963.024,703.952 959.524,711.119 953.5,717C 962.543,717.192 971.543,717.859 980.5,719C 986.618,720.385 991.285,723.718 994.5,729C 988.862,727.906 983.195,726.573 977.5,725C 902.167,724.333 826.833,724.333 751.5,725C 750.167,726.333 750.167,727.667 751.5,729C 765.567,730.689 778.567,735.356 790.5,743C 808.324,755.815 824.658,770.481 839.5,787C 855.381,795.814 871.048,795.481 886.5,786C 891.5,781.667 896.5,777.333 901.5,773C 911.148,768.87 917.481,771.704 920.5,781.5C 920.43,782.772 920.097,783.938 919.5,785C 914.632,786.067 909.966,787.734 905.5,790C 904.167,791 904.167,792 905.5,793C 911.269,791.177 917.269,789.844 923.5,789C 928.833,788.333 934.167,788.333 939.5,789C 944.479,789.808 947.146,792.642 947.5,797.5C 942.336,799.266 937.002,800.266 931.5,800.5C 931.5,801.833 931.5,803.167 931.5,804.5C 938.723,802.823 946.057,801.99 953.5,802C 959.073,805.172 961.073,810.005 959.5,816.5C 955.5,816.5 951.5,816.5 947.5,816.5C 947.33,817.822 947.663,818.989 948.5,820C 953.5,820.333 958.5,820.667 963.5,821C 970.332,822.992 973.999,827.492 974.5,834.5C 968.788,834.313 963.121,834.646 957.5,835.5C 957.5,836.5 957.5,837.5 957.5,838.5C 963.509,838.334 969.509,838.501 975.5,839C 976.893,840.171 977.727,841.671 978,843.5C 978.667,847.5 978.667,851.5 978,855.5C 976.395,858.89 973.895,859.89 970.5,858.5C 967.824,853.672 963.824,851.172 958.5,851C 958.043,851.414 957.709,851.914 957.5,852.5C 959.457,854.485 961.79,855.985 964.5,857C 968.284,861.861 969.451,867.361 968,873.5C 963.464,880.844 956.964,883.344 948.5,881C 942.34,878.513 938.84,874.013 938,867.5C 935.211,864.871 933.211,865.538 932,869.5C 928.265,886.119 918.431,891.285 902.5,885C 895.716,878.764 896.049,872.764 903.5,867C 906.536,864.994 909.869,864.16 913.5,864.5C 913.5,863.167 913.5,861.833 913.5,860.5C 908.713,859.97 904.38,861.137 900.5,864C 897.011,867.339 894.011,871.006 891.5,875C 884.241,878.256 878.741,876.423 875,869.5C 873.072,863.521 874.905,859.354 880.5,857C 886.833,856.667 893.167,856.333 899.5,856C 900.337,854.989 900.67,853.822 900.5,852.5C 895.833,852.5 891.167,852.5 886.5,852.5C 883.109,842.081 886.776,836.914 897.5,837C 906.063,839.948 914.397,843.448 922.5,847.5C 927.344,845.458 928.511,842.124 926,837.5C 922.79,833.813 918.956,830.979 914.5,829C 893.917,820.185 872.584,817.519 850.5,821C 833.86,824.551 817.194,827.884 800.5,831C 782.667,834.166 767.501,829.332 755,816.5C 753.333,813.833 751.667,811.167 750,808.5C 744.01,785.841 730.176,770.008 708.5,761C 672.338,746.87 638.004,750.204 605.5,771C 595.785,779.05 585.785,786.716 575.5,794C 570.827,797.547 565.994,798.047 561,795.5C 559.274,796.648 559.441,797.815 561.5,799C 563.5,799.333 565.5,799.667 567.5,800C 564.833,801.667 562.167,803.333 559.5,805C 556.723,805.051 554.057,805.218 551.5,805.5C 552.263,806.719 553.263,807.719 554.5,808.5C 547.203,816.08 538.869,817.747 529.5,813.5C 528.167,814.5 528.167,815.5 529.5,816.5C 532.05,817.942 534.716,819.108 537.5,820C 531.783,825.386 525.616,825.886 519,821.5C 518.5,821.833 518,822.167 517.5,822.5C 519.959,825.76 523.292,827.26 527.5,827C 522.336,833.288 516.169,834.788 509,831.5C 507.555,826.277 509.055,822.11 513.5,819C 519.459,815.098 524.959,810.598 530,805.5C 530.494,803.866 530.66,802.199 530.5,800.5C 515.625,805.54 505.459,815.54 500,830.5C 499.5,836.509 499.667,842.509 500.5,848.5C 500.13,867.709 490.463,876.543 471.5,875C 467.717,873.942 464.383,872.109 461.5,869.5C 457.54,884.459 447.874,890.292 432.5,887C 434.904,883.028 435.904,878.694 435.5,874C 435.333,871.5 435.167,869 435,866.5C 433.989,865.663 432.822,865.33 431.5,865.5C 432.011,872.042 431.178,878.376 429,884.5C 424.177,886.974 419.011,887.974 413.5,887.5C 410.167,887.333 406.833,887.167 403.5,887C 406.008,880.431 407.008,873.597 406.5,866.5C 405.167,866.5 403.833,866.5 402.5,866.5C 403.951,874.422 401.951,881.255 396.5,887C 392.5,887.667 388.5,887.667 384.5,887C 385.863,885.055 386.697,882.888 387,880.5C 387.499,876.179 387.666,871.846 387.5,867.5C 386.167,867.5 384.833,867.5 383.5,867.5C 386.502,884.166 379.835,890.5 363.5,886.5C 365.993,880.415 366.993,874.082 366.5,867.5C 365.167,867.5 363.833,867.5 362.5,867.5C 362.893,873.678 362.06,879.678 360,885.5C 359.25,886.126 358.416,886.626 357.5,887C 351.804,887.83 346.137,887.663 340.5,886.5C 341.767,884.629 341.767,882.796 340.5,881C 337.167,881 333.833,881 330.5,881C 328.963,879.89 328.297,878.39 328.5,876.5C 327.178,876.33 326.011,876.663 325,877.5C 324.366,887.971 318.866,892.971 308.5,892.5C 303.239,892.435 298.239,891.268 293.5,889C 290.428,884.745 289.928,880.245 292,875.5C 294.522,871.645 297.689,868.478 301.5,866C 301.333,864.5 300.5,863.667 299,863.5C 294.564,865.601 291.064,868.768 288.5,873C 283.666,876.252 278.666,879.252 273.5,882C 269.495,883.098 265.995,882.265 263,879.5C 258.035,872.189 257.369,864.522 261,856.5C 266.675,853.351 272.675,852.684 279,854.5C 282.448,855.061 283.615,853.894 282.5,851C 276.167,849.442 269.834,849.276 263.5,850.5C 259.686,847.813 258.52,844.147 260,839.5C 262.538,828.309 269.371,824.476 280.5,828C 285.384,830.22 289.718,833.22 293.5,837C 296.014,838.252 298.68,838.752 301.5,838.5C 299.091,822.766 305.424,817.933 320.5,824C 324.125,829.415 327.625,834.915 331,840.5C 333.817,844.075 337.484,846.075 342,846.5C 352.428,844.709 362.595,841.875 372.5,838C 392.742,836.182 412.742,832.849 432.5,828C 435.833,826.667 439.167,825.333 442.5,824C 445.385,821.606 448.385,819.439 451.5,817.5C 464.044,820.483 474.877,817.483 484,808.5C 486.192,803.381 487.692,798.048 488.5,792.5C 493.25,790.583 496.917,787.416 499.5,783C 520.006,781.811 527.672,771.311 522.5,751.5C 525.985,751.311 529.652,751.311 533.5,751.5C 532.799,740.964 529.132,731.63 522.5,723.5C 524.879,721.958 527.379,720.625 530,719.5C 541.212,723.171 552.712,724.337 564.5,723C 573.199,722.263 581.866,721.263 590.5,720C 606.597,715.225 622.931,711.559 639.5,709C 734.504,709.304 829.504,709.97 924.5,711C 937.057,706.051 942.557,696.884 941,683.5C 937.47,676.81 931.97,672.643 924.5,671C 903.167,670.333 881.833,670.333 860.5,671C 850.988,671.689 842.321,674.689 834.5,680C 830.774,684.728 827.441,689.728 824.5,695C 820.625,696.52 816.625,696.854 812.5,696C 812.043,695.586 811.709,695.086 811.5,694.5C 814.725,688.77 818.891,683.77 824,679.5C 824.601,678.035 824.101,677.035 822.5,676.5C 816.112,681.392 810.946,687.392 807,694.5C 805.67,695.582 804.17,696.249 802.5,696.5 Z"/></g>
<g><path style="opacity:1" fill="#f5cf15" d="M 429.5,639.5 C 429.783,640.289 430.283,640.956 431,641.5C 431.498,638.183 431.665,634.85 431.5,631.5C 432.996,625.289 436.496,623.955 442,627.5C 443.528,630.417 444.861,633.417 446,636.5C 447.139,633.417 448.472,630.417 450,627.5C 454.797,623.198 458.797,623.864 462,629.5C 462.333,633.167 462.667,636.833 463,640.5C 465.045,637.577 467.212,634.743 469.5,632C 472.54,629.845 475.373,630.012 478,632.5C 478.333,636.167 478.667,639.833 479,643.5C 483.399,640.894 487.733,640.894 492,643.5C 492.985,645.366 493.485,647.366 493.5,649.5C 493.121,652.582 492.454,655.582 491.5,658.5C 497.692,656.35 502.525,658.017 506,663.5C 505.987,670.044 503.821,675.878 499.5,681C 514.724,674.878 521.224,680.044 519,696.5C 517.76,701.479 515.594,705.979 512.5,710C 512.905,710.945 513.572,711.612 514.5,712C 519.202,712.172 523.868,712.672 528.5,713.5C 524.965,718.441 520.298,720.275 514.5,719C 511.969,722.234 512.969,724.234 517.5,725C 524.194,730.575 527.528,737.741 527.5,746.5C 525.011,746.702 522.677,746.202 520.5,745C 516.695,739.029 512.695,733.196 508.5,727.5C 505.984,726.051 504.817,726.718 505,729.5C 511.543,737.25 516.543,745.917 520,755.5C 522.398,770.477 516.231,777.81 501.5,777.5C 502.628,770.884 502.795,764.218 502,757.5C 501.477,755.777 500.477,754.444 499,753.5C 496.005,754.518 495.672,756.184 498,758.5C 498.788,765.556 498.455,772.556 497,779.5C 495,784.167 491.667,787.5 487,789.5C 485.303,783.774 482.803,778.441 479.5,773.5C 478.311,772.571 476.978,772.238 475.5,772.5C 477.371,777.915 479.538,783.248 482,788.5C 485.404,802.875 479.904,811.375 465.5,814C 461.375,814.854 457.375,814.52 453.5,813C 460.846,798.433 461.346,783.599 455,768.5C 453.644,767.62 452.144,767.286 450.5,767.5C 456.842,781.435 457.008,795.435 451,809.5C 444.982,818.599 436.482,823.766 425.5,825C 421.5,825.667 417.5,825.667 413.5,825C 406.281,823.526 405.948,821.526 412.5,819C 422.708,809.586 428.708,797.919 430.5,784C 429.667,781.5 428.167,781 426,782.5C 424.676,797.664 417.843,809.497 405.5,818C 401.452,819.793 397.452,819.793 393.5,818C 392.643,817.311 391.977,816.478 391.5,815.5C 398.644,809.878 402.644,802.545 403.5,793.5C 402.178,793.33 401.011,793.663 400,794.5C 397.129,806.734 389.629,812.901 377.5,813C 374.048,812.108 371.048,810.442 368.5,808C 372.422,804.749 375.588,800.916 378,796.5C 379.318,793.594 379.652,790.594 379,787.5C 378.326,786.422 377.326,785.755 376,785.5C 366.649,788.003 358.982,793.003 353,800.5C 351.133,776.076 361.633,759.91 384.5,752C 383.956,750.053 382.623,749.22 380.5,749.5C 372.041,751.648 364.874,755.982 359,762.5C 355.606,766.898 352.606,771.565 350,776.5C 345.48,759.343 350.98,746.843 366.5,739C 366.333,737.5 365.5,736.667 364,736.5C 355.841,738.658 350.174,743.658 347,751.5C 345.656,744.612 346.99,738.278 351,732.5C 355.068,728.263 359.235,724.263 363.5,720.5C 363.471,718.971 362.804,717.804 361.5,717C 353.729,715.046 353.729,712.712 361.5,710C 365.152,709.501 368.818,709.335 372.5,709.5C 372.298,707.011 372.798,704.677 374,702.5C 377.323,700.176 380.323,697.509 383,694.5C 383.667,692.5 383.667,690.5 383,688.5C 377.926,679.789 377.259,670.789 381,661.5C 384.84,657.837 389.006,657.504 393.5,660.5C 394.167,660.167 394.833,659.833 395.5,659.5C 392.951,656.198 392.118,652.531 393,648.5C 396.864,645.75 400.531,646.084 404,649.5C 402.29,635.49 406.29,633.823 416,644.5C 415.722,640.861 415.722,637.194 416,633.5C 418.21,630.71 421.044,629.877 424.5,631C 427.072,633.313 428.739,636.146 429.5,639.5 Z"/></g>
<g><path style="opacity:1" fill="#025186" d="M 273.5,626.5 C 278.139,626.046 282.139,627.38 285.5,630.5C 283.041,631.326 280.541,631.993 278,632.5C 275.899,630.906 274.399,628.906 273.5,626.5 Z"/></g>
<g><path style="opacity:1" fill="#02568f" d="M 236.5,634.5 C 241.711,634.016 246.378,635.349 250.5,638.5C 246.572,640.43 242.905,642.763 239.5,645.5C 236.163,642.829 232.496,640.663 228.5,639C 231.099,637.205 233.766,635.705 236.5,634.5 Z"/></g>
<g><path style="opacity:1" fill="#f8d215" d="M 345.5,723.5 C 347.5,724.167 349.5,724.833 351.5,725.5C 347.669,729.511 344.836,734.178 343,739.5C 342.382,750.524 342.715,761.524 344,772.5C 347.301,782.642 348.468,792.975 347.5,803.5C 345.232,804.544 342.899,804.711 340.5,804C 335.373,801.603 330.373,798.936 325.5,796C 322.428,795.544 319.428,795.544 316.5,796C 314.041,793.554 311.708,791.054 309.5,788.5C 315.17,785.845 318.504,781.512 319.5,775.5C 318.325,775.281 317.325,775.614 316.5,776.5C 311.146,786.036 303.813,788.202 294.5,783C 292.968,780.966 291.635,778.799 290.5,776.5C 296.19,774.742 300.69,771.408 304,766.5C 304.5,764.333 303.667,763.5 301.5,764C 296.894,771.14 290.561,773.474 282.5,771C 279.445,768.924 278.445,766.258 279.5,763C 285.471,761.548 289.471,758.048 291.5,752.5C 287.057,755.224 282.391,757.724 277.5,760C 268.491,761.159 262.825,757.326 260.5,748.5C 264.875,746.988 269.208,745.321 273.5,743.5C 274.386,742.675 274.719,741.675 274.5,740.5C 270.832,741.556 267.165,742.722 263.5,744C 259.191,745.198 255.524,744.198 252.5,741C 259.239,740.423 265.239,738.09 270.5,734C 269.975,733.308 269.308,732.808 268.5,732.5C 263.308,736.021 257.641,737.187 251.5,736C 247.081,733.758 244.414,730.258 243.5,725.5C 247.054,725.85 250.388,725.184 253.5,723.5C 254.386,722.675 254.719,721.675 254.5,720.5C 251.972,721.011 249.472,721.678 247,722.5C 245.774,722.355 244.607,722.022 243.5,721.5C 242.012,718.693 240.679,715.859 239.5,713C 243.501,708.918 244.501,704.085 242.5,698.5C 241.975,697.808 241.308,697.308 240.5,697C 231.752,698.881 225.919,695.714 223,687.5C 219.98,674.203 224.813,665.203 237.5,660.5C 241.504,661.747 244.67,664.08 247,667.5C 249.275,672.267 250.775,677.267 251.5,682.5C 252.833,682.5 254.167,682.5 255.5,682.5C 255.02,675.244 252.853,668.577 249,662.5C 238.483,654.726 239.316,648.226 251.5,643C 258.791,641.817 265.458,643.317 271.5,647.5C 268.029,654.249 267.529,661.249 270,668.5C 272.167,670 273.667,669.5 274.5,667C 273.422,664.433 272.755,661.767 272.5,659C 274.551,652.296 276.051,645.463 277,638.5C 286.485,632.826 292.652,635.326 295.5,646C 294.579,649.613 292.745,652.78 290,655.5C 286.896,660.44 285.896,665.774 287,671.5C 288.079,673.394 289.413,673.727 291,672.5C 289.709,656.777 296.542,650.944 311.5,655C 315.417,658.328 316.917,662.495 316,667.5C 311.611,672.889 307.611,678.556 304,684.5C 303.333,687.5 303.333,690.5 304,693.5C 314.207,702.709 324.707,711.543 335.5,720C 338.487,722.082 341.821,723.249 345.5,723.5 Z"/></g>
<g><path style="opacity:1" fill="#84700a" d="M 431.5,631.5 C 431.665,634.85 431.498,638.183 431,641.5C 430.283,640.956 429.783,640.289 429.5,639.5C 430.167,636.833 430.833,634.167 431.5,631.5 Z"/></g>
<g><path style="opacity:1" fill="#024f83" d="M 305.5,642.5 C 310.527,643.835 313.193,646.835 313.5,651.5C 311.453,649.985 309.119,649.151 306.5,649C 305.577,646.959 305.244,644.792 305.5,642.5 Z"/></g>
<g><path style="opacity:1" fill="#d5040d" d="M 610.5,642.5 C 623.083,641.988 635.417,643.488 647.5,647C 664.415,653.627 681.415,659.96 698.5,666C 677.231,668.66 655.897,670.66 634.5,672C 618.787,672.919 603.121,672.586 587.5,671C 578.488,669.138 575.654,663.972 579,655.5C 581.592,652.238 584.759,649.738 588.5,648C 595.763,645.321 603.097,643.487 610.5,642.5 Z"/></g>
<g><path style="opacity:1" fill="#6a0206" d="M 299.5,643.5 C 299.972,645.531 300.972,647.198 302.5,648.5C 301.791,649.404 300.791,649.737 299.5,649.5C 299.5,647.5 299.5,645.5 299.5,643.5 Z"/></g>
<g><path style="opacity:1" fill="#0e0b04" d="M 437.5,650.5 C 439.346,650.222 440.68,650.889 441.5,652.5C 439.852,662.132 435.352,670.132 428,676.5C 425.928,679.932 425.262,683.598 426,687.5C 427.011,688.337 428.178,688.67 429.5,688.5C 429.67,689.822 429.337,690.989 428.5,692C 422.552,691.929 420.552,694.596 422.5,700C 424.568,700.687 426.568,700.52 428.5,699.5C 429.314,701.766 429.814,704.1 430,706.5C 432.706,709.978 435.706,710.311 439,707.5C 440.289,704.649 440.789,701.649 440.5,698.5C 443.141,699.263 445.808,699.43 448.5,699C 449.86,697.062 449.527,695.396 447.5,694C 445.341,693.088 443.175,692.255 441,691.5C 440.51,690.207 440.343,688.873 440.5,687.5C 442.167,687.5 443.833,687.5 445.5,687.5C 444.932,681.166 444.766,674.833 445,668.5C 446.561,665.217 448.727,662.383 451.5,660C 453.319,659.217 454.652,659.717 455.5,661.5C 454.52,662.981 453.353,664.315 452,665.5C 451.312,666.332 451.479,666.998 452.5,667.5C 460.355,664.133 467.522,665.133 474,670.5C 475.928,676.479 474.095,680.646 468.5,683C 462.128,684.22 456.128,683.387 450.5,680.5C 449.167,683.833 449.167,687.167 450.5,690.5C 453.305,693.236 454.138,696.57 453,700.5C 450.695,702.93 447.862,703.93 444.5,703.5C 444.477,708.69 441.977,712.023 437,713.5C 435.551,720.294 438.218,723.961 445,724.5C 450.966,724.181 455.633,721.515 459,716.5C 459.801,712.806 460.968,709.306 462.5,706C 471.137,707.009 478.137,704.176 483.5,697.5C 487.795,696.339 492.129,696.172 496.5,697C 497.337,698.011 497.67,699.178 497.5,700.5C 493.818,700.335 490.152,700.501 486.5,701C 479.287,707.287 475.954,715.287 476.5,725C 476.353,729.001 477.02,732.834 478.5,736.5C 478.281,738.915 476.948,739.915 474.5,739.5C 471.834,729.842 471.834,720.176 474.5,710.5C 471.588,709.932 468.588,709.932 465.5,710.5C 463.047,717.644 461.214,724.977 460,732.5C 458.128,739.915 454.462,746.248 449,751.5C 447.742,749.236 446.575,746.902 445.5,744.5C 442.617,751.933 438.951,758.933 434.5,765.5C 425.464,772.634 416.297,772.968 407,766.5C 406.042,764.801 405.542,762.967 405.5,761C 407.283,752.904 408.117,744.738 408,736.5C 407.117,739.102 405.617,741.269 403.5,743C 402.668,743.688 402.002,743.521 401.5,742.5C 397.768,733.791 396.601,724.791 398,715.5C 396.266,717.451 394.099,718.451 391.5,718.5C 394.16,715.761 396.494,712.594 398.5,709C 395.183,703.201 392.85,697.035 391.5,690.5C 393.39,690.297 394.89,690.963 396,692.5C 397.374,700.445 401.541,706.278 408.5,710C 411.167,713 413.833,716 416.5,719C 421.363,721.329 425.863,720.829 430,717.5C 430.638,716.391 431.138,715.225 431.5,714C 428.955,711.953 426.955,709.453 425.5,706.5C 418.781,704.628 415.948,700.295 417,693.5C 418,691.833 419.333,690.5 421,689.5C 421.465,685.152 421.965,680.819 422.5,676.5C 415.634,677.051 410.134,674.717 406,669.5C 405.333,666.833 405.333,664.167 406,661.5C 406.903,660.299 408.069,659.465 409.5,659C 418.015,657.052 425.515,658.886 432,664.5C 434.744,660.192 436.577,655.525 437.5,650.5 Z"/></g>
<g><path style="opacity:1" fill="#570205" d="M 810.5,650.5 C 814.298,651.483 818.298,651.817 822.5,651.5C 818.019,652.648 813.352,652.815 808.5,652C 809.044,651.283 809.711,650.783 810.5,650.5 Z"/></g>
<g><path style="opacity:1" fill="#eec914" d="M 410.5,662.5 C 412.527,662.338 414.527,662.505 416.5,663C 415.192,665.355 414.192,667.855 413.5,670.5C 409.529,669.003 408.529,666.336 410.5,662.5 Z"/></g>
<g><path style="opacity:1" fill="#efca14" d="M 424.5,664.5 C 429.81,667.165 429.644,669.832 424,672.5C 423.5,672.167 423,671.833 422.5,671.5C 423.577,669.271 424.244,666.937 424.5,664.5 Z"/></g>
<g><path style="opacity:1" fill="#0a0802" d="M 383.5,664.5 C 387.296,665.8 389.463,668.467 390,672.5C 390.667,676.5 390.667,680.5 390,684.5C 389.586,684.957 389.086,685.291 388.5,685.5C 387.672,681.204 387.172,676.871 387,672.5C 385.555,669.91 384.388,667.243 383.5,664.5 Z"/></g>
<g><path style="opacity:1" fill="#eac614" d="M 454.5,670.5 C 456.369,672.635 457.036,675.302 456.5,678.5C 449.714,676.983 449.047,674.316 454.5,670.5 Z"/></g>
<g><path style="opacity:1" fill="#e7c313" d="M 465.5,670.5 C 469.976,670.822 471.476,673.156 470,677.5C 468.308,679.245 466.475,679.578 464.5,678.5C 465.393,675.916 465.726,673.249 465.5,670.5 Z"/></g>
<g><path style="opacity:1" fill="#025993" d="M 214.5,672.5 C 215.978,672.238 217.311,672.571 218.5,673.5C 217.583,676.758 217.249,680.091 217.5,683.5C 213.288,683.078 209.288,683.744 205.5,685.5C 204.432,683.813 204.599,682.146 206,680.5C 208.729,677.601 211.562,674.934 214.5,672.5 Z"/></g>
<g><path style="opacity:1" fill="#141004" d="M 510.5,684.5 C 511.5,684.5 512.5,684.5 513.5,684.5C 509.614,690.173 507.947,696.506 508.5,703.5C 507.5,703.5 506.5,703.5 505.5,703.5C 504.534,696.409 506.201,690.076 510.5,684.5 Z"/></g>
<g><path style="opacity:1" fill="#8c760b" d="M 791.5,695.5 C 794.962,696.482 798.629,696.815 802.5,696.5C 798.649,697.809 794.649,697.809 790.5,696.5C 790.624,695.893 790.957,695.56 791.5,695.5 Z"/></g>
<g><path style="opacity:1" fill="#ecc714" d="M 402.5,712.5 C 406.485,713.152 408.819,715.485 409.5,719.5C 408.904,725.686 406.904,731.352 403.5,736.5C 401.957,732.87 401.291,729.037 401.5,725C 401.658,720.808 401.991,716.641 402.5,712.5 Z"/></g>
<g><path style="opacity:1" fill="#806b09" d="M 345.5,723.5 C 347.924,723.192 350.257,723.526 352.5,724.5C 352.376,725.107 352.043,725.44 351.5,725.5C 349.5,724.833 347.5,724.167 345.5,723.5 Z"/></g>
<g><path style="opacity:1" fill="#025b96" d="M 431.5,722.5 C 433.178,723.747 434.511,725.414 435.5,727.5C 437.547,729.015 439.881,729.849 442.5,730C 443.022,730.561 443.355,731.228 443.5,732C 441.552,742.064 438.052,751.564 433,760.5C 426.334,766.98 419.001,767.98 411,763.5C 412.227,750.556 413.06,737.556 413.5,724.5C 418.42,726.797 423.42,726.964 428.5,725C 429.942,724.623 430.942,723.79 431.5,722.5 Z"/></g>
<g><path style="opacity:1" fill="#efca14" d="M 456.5,724.5 C 456.91,731.777 454.743,738.444 450,744.5C 448.325,739.222 448.159,733.889 449.5,728.5C 452.349,727.9 454.682,726.567 456.5,724.5 Z"/></g>
<g><path style="opacity:1" fill="#3b0203" d="M 972.5,729.5 C 906.331,729.168 840.331,729.501 774.5,730.5C 773.711,730.217 773.044,729.717 772.5,729C 839.335,728.168 906.001,728.335 972.5,729.5 Z"/></g>
<g><path style="opacity:1" fill="#1c1706" d="M 485.5,747.5 C 487.752,747.916 489.252,749.249 490,751.5C 493.956,759.405 494.289,767.405 491,775.5C 490.218,778.188 488.718,779.188 486.5,778.5C 490.273,772.331 491.44,765.665 490,758.5C 488.487,754.812 486.987,751.145 485.5,747.5 Z"/></g>
<g><path style="opacity:1" fill="#f8d115" d="M 713.5,876.5 C 710.941,876.802 708.607,876.468 706.5,875.5C 709.717,869.962 711.05,863.962 710.5,857.5C 709.5,857.5 708.5,857.5 707.5,857.5C 707.624,874.049 699.624,880.716 683.5,877.5C 688.111,871.662 690.111,864.995 689.5,857.5C 688.5,857.5 687.5,857.5 686.5,857.5C 686.871,873.807 679.204,880.141 663.5,876.5C 668.002,870.997 670.335,864.664 670.5,857.5C 669.167,857.5 667.833,857.5 666.5,857.5C 666.537,864.262 664.204,870.095 659.5,875C 655.583,876.691 651.583,876.857 647.5,875.5C 651.192,870.408 653.525,864.741 654.5,858.5C 654.167,857.5 653.5,856.833 652.5,856.5C 649.971,862.212 647.137,867.879 644,873.5C 637.876,879.181 631.042,880.014 623.5,876C 622.17,873.123 622.336,870.289 624,867.5C 626.786,864.112 630.119,861.446 634,859.5C 634.483,858.552 634.649,857.552 634.5,856.5C 631.774,856.264 629.441,857.097 627.5,859C 623.076,863.085 619.076,867.418 615.5,872C 604.823,875.667 596.99,872.5 592,862.5C 591.302,855.387 593.802,849.554 599.5,845C 603.848,844.336 607.514,845.669 610.5,849C 611.793,849.49 613.127,849.657 614.5,849.5C 614.703,847.61 614.037,846.11 612.5,845C 603.939,839.372 596.606,840.539 590.5,848.5C 589.522,848.023 588.689,847.357 588,846.5C 585.928,831.575 592.094,826.408 606.5,831C 610.687,833.068 614.687,835.234 618.5,837.5C 618.822,835.278 618.155,833.444 616.5,832C 613.383,830.027 610.216,828.193 607,826.5C 605.927,822.905 607.261,820.905 611,820.5C 621.764,823.976 628.43,831.31 631,842.5C 632.579,844.041 634.413,845.208 636.5,846C 645.862,846.628 655.195,846.295 664.5,845C 668.987,843.7 670.987,840.7 670.5,836C 670.506,833.7 670.006,831.534 669,829.5C 658.667,817.833 647.667,806.833 636,796.5C 633.702,792.782 633.035,788.782 634,784.5C 639.616,779.558 645.282,774.558 651,769.5C 653.93,765.575 656.43,761.408 658.5,757C 666.577,756.315 674.577,756.815 682.5,758.5C 682.807,765.286 685.807,770.453 691.5,774C 702.805,775.702 714.139,777.369 725.5,779C 731,781.833 735.167,786 738,791.5C 737.319,802.215 736.319,812.881 735,823.5C 738.726,828.228 742.059,833.228 745,838.5C 747.238,850.676 743.405,860.342 733.5,867.5C 733.258,863.92 733.091,860.253 733,856.5C 732.29,855.027 731.124,854.36 729.5,854.5C 731.433,867.348 726.099,874.681 713.5,876.5 Z"/></g>
<g><path style="opacity:1" fill="#1b1605" d="M 377.5,759.5 C 378.675,759.281 379.675,759.614 380.5,760.5C 374.251,764.411 368.585,769.078 363.5,774.5C 362.417,773.635 362.251,772.635 363,771.5C 367.149,766.503 371.983,762.503 377.5,759.5 Z"/></g>
<g><path style="opacity:1" fill="#e9c514" d="M 687.5,759.5 C 699.752,761.749 711.085,766.249 721.5,773C 712.808,772.998 704.141,772.331 695.5,771C 690.244,768.995 687.578,765.161 687.5,759.5 Z"/></g>
<g><path style="opacity:1" fill="#1d1806" d="M 462.5,768.5 C 464.903,768.393 466.736,769.393 468,771.5C 473.051,777.602 475.884,784.602 476.5,792.5C 476.596,796.118 475.762,799.451 474,802.5C 473.871,796.086 473.204,789.753 472,783.5C 469.311,778.106 466.145,773.106 462.5,768.5 Z"/></g>
<g><path style="opacity:1" fill="#1b1605" d="M 374.5,770.5 C 378.96,769.885 382.96,770.885 386.5,773.5C 382.62,773.588 378.62,773.754 374.5,774C 371.368,775.635 368.368,777.468 365.5,779.5C 365.167,779.167 364.833,778.833 364.5,778.5C 367.499,775.344 370.832,772.678 374.5,770.5 Z"/></g>
<g><path style="opacity:1" fill="#1f1a07" d="M 462.5,776.5 C 463.496,776.414 464.329,776.748 465,777.5C 470.911,787.449 471.911,797.782 468,808.5C 467.13,807.892 466.63,807.059 466.5,806C 467.597,800.54 467.764,795.04 467,789.5C 465.486,785.145 463.986,780.812 462.5,776.5 Z"/></g>
<g><path style="opacity:1" fill="#151104" d="M 439.5,782.5 C 441.045,783.23 441.878,784.563 442,786.5C 444.477,797.876 441.977,807.876 434.5,816.5C 433.417,815.635 433.251,814.635 434,813.5C 440.443,804.064 442.277,793.73 439.5,782.5 Z"/></g>
<g><path style="opacity:1" fill="#1d1806" d="M 433.5,784.5 C 434.5,784.5 435.5,784.5 436.5,784.5C 437.227,792.923 435.727,800.923 432,808.5C 431.101,810.327 429.767,811.66 428,812.5C 427.5,812.167 427,811.833 426.5,811.5C 432.904,803.635 435.237,794.635 433.5,784.5 Z"/></g>
<g><path style="opacity:1" fill="#ecc714" d="M 372.5,790.5 C 374.344,791.204 374.844,792.537 374,794.5C 372.75,797.916 370.583,800.583 367.5,802.5C 365.684,800.882 364.351,798.882 363.5,796.5C 366.393,794.228 369.393,792.228 372.5,790.5 Z"/></g>
<g><path style="opacity:1" fill="#025186" d="M 297.5,812.5 C 301.985,812.717 305.985,814.217 309.5,817C 303.664,820.05 299.664,818.55 297.5,812.5 Z"/></g>
<g><path style="opacity:1" fill="#024d81" d="M 600.5,815.5 C 602.75,815.181 604.75,815.681 606.5,817C 604.981,818.351 603.648,819.851 602.5,821.5C 600.336,820.586 598.336,819.419 596.5,818C 598.066,817.392 599.4,816.558 600.5,815.5 Z"/></g>
<g><path style="opacity:1" fill="#025790" d="M 255.5,829.5 C 256.873,829.343 258.207,829.51 259.5,830C 257.878,833.027 256.545,836.194 255.5,839.5C 251.878,840.659 248.211,840.825 244.5,840C 247.404,835.593 251.071,832.093 255.5,829.5 Z"/></g>
<g><path style="opacity:1" fill="#025185" d="M 581.5,836.5 C 583.402,839.337 584.069,842.671 583.5,846.5C 580.495,846.253 577.995,847.253 576,849.5C 575.625,844.249 577.458,839.915 581.5,836.5 Z"/></g>
<g><path style="opacity:1" fill="#02558d" d="M 881.5,837.5 C 882.239,837.369 882.906,837.536 883.5,838C 880.971,840.642 879.971,843.808 880.5,847.5C 877.111,847.632 873.777,847.799 870.5,848C 873.404,843.593 877.071,840.093 881.5,837.5 Z"/></g>
<g><path style="opacity:1" fill="#025287" d="M 586.5,860.5 C 587.903,863.227 589.237,866.061 590.5,869C 586.879,876.645 584.546,876.312 583.5,868C 583.548,865.078 584.548,862.578 586.5,860.5 Z"/></g>
<g><path style="opacity:1" fill="#02548b" d="M 869.5,865.5 C 870.132,868.362 871.132,871.196 872.5,874C 869.705,875.793 867.205,877.96 865,880.5C 863.624,874.598 865.124,869.598 869.5,865.5 Z"/></g>
<g><path style="opacity:1" fill="#025389" d="M 253.5,866.5 C 254.801,869.791 255.801,873.291 256.5,877C 253.752,878.804 251.252,880.971 249,883.5C 248.472,877.276 249.972,871.609 253.5,866.5 Z"/></g>
<g><path style="opacity:1" fill="#7f6b09" d="M 706.5,875.5 C 708.607,876.468 710.941,876.802 713.5,876.5C 710.976,877.8 708.309,877.8 705.5,876.5C 705.624,875.893 705.957,875.56 706.5,875.5 Z"/></g>
<g><path style="opacity:1" fill="#02558d" d="M 620.5,879.5 C 623.122,880.811 625.789,882.145 628.5,883.5C 627.77,886.109 627.27,888.776 627,891.5C 622.476,888.753 620.31,884.753 620.5,879.5 Z"/></g>
<g><path style="opacity:1" fill="#02558d" d="M 893.5,882.5 C 894.977,884.807 896.977,886.64 899.5,888C 897.542,890.748 895.709,893.582 894,896.5C 892.229,891.87 892.063,887.203 893.5,882.5 Z"/></g>
<g><path style="opacity:1" fill="#02558d" d="M 950.5,885.5 C 953.5,885.5 956.5,885.5 959.5,885.5C 959.02,890.126 957.187,894.126 954,897.5C 952.928,893.453 951.761,889.453 950.5,885.5 Z"/></g>
<g><path style="opacity:1" fill="#02568e" d="M 299.5,895.5 C 302.846,896.003 306.179,896.67 309.5,897.5C 306.909,901.773 303.243,904.439 298.5,905.5C 298.616,902.14 298.949,898.807 299.5,895.5 Z"/></g>
</svg>
