<?xml version="1.0" standalone="no"?>
<!DOCTYPE svg PUBLIC "-//W3C//DTD SVG 20010904//EN"
 "http://www.w3.org/TR/2001/REC-SVG-20010904/DTD/svg10.dtd">
<svg version="1.0" xmlns="http://www.w3.org/2000/svg"
 width="512.000000pt" height="512.000000pt" viewBox="0 0 512.000000 512.000000"
 preserveAspectRatio="xMidYMid meet">

<g transform="translate(0.000000,512.000000) scale(0.100000,-0.100000)"
fill="#000000" stroke="none">
<path d="M4054 5102 c-68 -24 -98 -49 -314 -266 -176 -177 -187 -186 -223
-186 -22 0 -53 -7 -71 -15 -18 -9 -127 -111 -243 -228 -217 -218 -233 -239
-233 -317 0 -20 -265 -290 -1281 -1306 l-1281 -1281 -77 -254 c-365 -1200
-352 -1146 -290 -1208 62 -62 8 -75 1208 290 l254 77 1281 1281 c1016 1016
1286 1281 1306 1281 78 0 99 16 317 233 117 116 219 225 228 243 8 18 15 49
15 70 0 36 11 49 210 249 238 240 254 264 255 380 0 134 6 126 -409 543 -291
293 -382 378 -423 399 -70 34 -160 40 -229 15z m160 -147 c18 -9 192 -176 388
-373 314 -314 357 -362 363 -395 15 -80 -2 -107 -203 -310 l-186 -187 -241
240 c-226 225 -243 240 -277 240 -40 0 -78 -35 -78 -73 0 -14 89 -110 260
-282 199 -200 260 -267 260 -286 0 -19 -46 -71 -193 -217 -106 -106 -200 -192
-208 -192 -18 0 -979 961 -979 979 0 8 86 102 192 208 146 146 198 193 217
193 18 0 60 -36 162 -137 116 -115 143 -136 168 -136 43 0 71 28 71 71 0 32
-13 48 -120 157 l-120 121 183 181 c215 215 256 238 341 198z m-1079 -1095
l70 -70 -1163 -1163 -1164 -1164 -121 23 c-67 12 -124 23 -127 23 -9 2 2415
2421 2425 2421 6 0 42 -32 80 -70z m365 -365 l185 -185 -568 -568 c-490 -490
-567 -571 -567 -597 0 -39 35 -75 74 -75 27 0 96 65 598 567 l568 568 70 -70
c38 -38 70 -74 70 -80 0 -10 -2419 -2434 -2421 -2425 -1 3 -11 59 -23 125
l-23 120 519 520 c561 564 547 547 493 600 -53 54 -36 68 -600 -494 l-520
-519 -160 25 c-88 14 -161 25 -162 26 -1 1 -12 74 -26 162 l-25 160 1161 1163
c639 639 1164 1162 1167 1162 3 0 88 -83 190 -185z m-2814 -2150 c76 -14 142
-25 145 -25 3 0 19 -87 34 -192 24 -157 33 -197 49 -213 17 -17 57 -26 211
-49 105 -16 191 -29 192 -30 4 -4 55 -307 52 -311 -2 -2 -139 -44 -304 -94
l-300 -90 -212 212 -212 212 91 303 c50 167 96 302 103 302 6 0 74 -11 151
-25z m-90 -1052 c-5 -6 -430 -133 -433 -130 -1 2 27 99 62 217 36 118 65 216
65 219 0 3 70 -64 155 -149 85 -85 153 -155 151 -157z"/>
</g>
</svg>
