<?xml version="1.0" encoding="UTF-8"?>
<!DOCTYPE svg PUBLIC "-//W3C//DTD SVG 1.1//EN" "http://www.w3.org/Graphics/SVG/1.1/DTD/svg11.dtd">
<svg xmlns="http://www.w3.org/2000/svg" version="1.1" width="500px" height="500px" style="shape-rendering:geometricPrecision; text-rendering:geometricPrecision; image-rendering:optimizeQuality; fill-rule:evenodd; clip-rule:evenodd" xmlns:xlink="http://www.w3.org/1999/xlink">
<g><path style="opacity:1" fill="#022394" d="M 249.5,99.5 C 249.5,149.5 249.5,199.5 249.5,249.5C 166.167,249.5 82.8333,249.5 -0.5,249.5C -0.5,209.833 -0.5,170.167 -0.5,130.5C 3.98523,114.516 14.3186,104.349 30.5,100C 103.499,99.5 176.499,99.3333 249.5,99.5 Z"/></g>
<g><path style="opacity:0.999" fill="#fdfcfc" d="M 249.5,99.5 C 322.501,99.3333 395.501,99.5 468.5,100C 484.681,104.349 495.015,114.516 499.5,130.5C 499.5,170.167 499.5,209.833 499.5,249.5C 416.167,249.5 332.833,249.5 249.5,249.5C 249.5,199.5 249.5,149.5 249.5,99.5 Z"/></g>
<g><path style="opacity:1" fill="#f4cf12" d="M 58.5,112.5 C 67.0142,119.568 69.8475,128.568 67,139.5C 63.4686,147.489 62.1352,155.822 63,164.5C 63.6354,155.067 67.1354,146.9 73.5,140C 79.1179,136.19 83.9513,137.023 88,142.5C 89.5344,148.899 87.701,154.065 82.5,158C 81.0337,158.635 79.7003,159.469 78.5,160.5C 78.1133,158.269 77.9466,155.936 78,153.5C 71.4939,152.48 67.9939,155.48 67.5,162.5C 68.5471,164.056 69.2137,165.723 69.5,167.5C 67.712,167.215 66.0453,167.548 64.5,168.5C 65.9722,171.805 68.3055,174.305 71.5,176C 68.5706,176.777 65.7372,176.61 63,175.5C 60.3678,191.464 57.7011,191.464 55,175.5C 46.2039,177.491 45.2039,176.491 52,172.5C 53.0086,170.975 53.5086,169.308 53.5,167.5C 51.8333,167.5 50.1667,167.5 48.5,167.5C 51.217,163.104 51.0503,158.771 48,154.5C 46.087,152.813 43.9203,152.313 41.5,153C 40.7547,155.571 40.4213,158.071 40.5,160.5C 32.401,157.63 28.901,151.963 30,143.5C 33.5422,137.124 38.3755,135.957 44.5,140C 51.1504,146.769 54.817,154.935 55.5,164.5C 56.6517,161.894 56.8184,159.227 56,156.5C 53.2271,148.354 51.3938,140.021 50.5,131.5C 50.6947,124.112 53.3613,117.779 58.5,112.5 Z"/></g>
<g><path style="opacity:1" fill="#f4cf12" d="M 194.5,155.5 C 193.197,158.355 193.197,161.355 194.5,164.5C 195.386,163.675 195.719,162.675 195.5,161.5C 196.243,153.096 199.576,145.929 205.5,140C 211.118,136.19 215.951,137.023 220,142.5C 221.48,152.082 217.646,157.915 208.5,160C 209.435,157.619 209.768,155.119 209.5,152.5C 200.292,153.913 197.625,158.913 201.5,167.5C 199.833,167.5 198.167,167.5 196.5,167.5C 197.485,171.33 199.819,174.163 203.5,176C 200.571,176.777 197.737,176.61 195,175.5C 192.407,191.422 189.574,191.422 186.5,175.5C 183.897,176.562 181.23,176.728 178.5,176C 182.529,174.478 184.863,171.645 185.5,167.5C 183.833,167.5 182.167,167.5 180.5,167.5C 184.375,158.913 181.708,153.913 172.5,152.5C 172.232,155.119 172.565,157.619 173.5,160C 164.687,158.161 160.854,152.661 162,143.5C 165.542,137.124 170.376,135.957 176.5,140C 182.662,145.825 185.995,152.991 186.5,161.5C 187.274,165.444 187.941,165.277 188.5,161C 188.486,159.615 188.152,158.449 187.5,157.5C 185.52,148.858 183.52,140.192 181.5,131.5C 182.538,124.091 185.704,117.758 191,112.5C 199.035,119.841 201.702,128.841 199,139.5C 196.983,144.713 195.483,150.046 194.5,155.5 Z"/></g>
<g><path style="opacity:1" fill="#e4353f" d="M 308.5,108.5 C 315.889,109.119 317.889,112.619 314.5,119C 315.181,122.403 316.181,125.736 317.5,129C 317.333,129.5 317.167,130 317,130.5C 316.465,128.729 315.631,128.396 314.5,129.5C 315.393,132.084 315.726,134.751 315.5,137.5C 313.151,137.458 311.818,138.625 311.5,141C 312,142.5 312.5,144 313,145.5C 315.95,148.031 319.117,150.198 322.5,152C 324.134,152.494 325.801,152.66 327.5,152.5C 327.149,148.299 324.983,145.299 321,143.5C 319.34,140.77 317.84,137.937 316.5,135C 320.276,128.889 325.11,123.722 331,119.5C 331.758,117.231 331.591,115.064 330.5,113C 327.51,112.153 326.176,113.32 326.5,116.5C 328.355,116.272 329.188,116.939 329,118.5C 325.178,119.528 322.678,121.862 321.5,125.5C 317.004,124.539 316.337,122.206 319.5,118.5C 316.335,114.505 317.002,112.838 321.5,113.5C 323.631,112.037 325.965,111.037 328.5,110.5C 333.79,111.304 335.623,114.304 334,119.5C 331.575,123.134 328.408,125.968 324.5,128C 326.891,128.691 326.891,129.691 324.5,131C 325.996,131.507 327.163,131.007 328,129.5C 328.167,129.833 328.333,130.167 328.5,130.5C 327.252,132.459 325.585,133.959 323.5,135C 325.256,135.14 326.922,134.64 328.5,133.5C 328.833,133.833 329.167,134.167 329.5,134.5C 327.5,136.5 325.5,138.5 323.5,140.5C 323.667,140.833 323.833,141.167 324,141.5C 325.815,139.595 327.815,137.928 330,136.5C 329.291,139.187 328.625,141.854 328,144.5C 329.967,149.534 333.467,153.034 338.5,155C 336.965,155.496 335.465,155.33 334,154.5C 331.917,156.04 329.584,157.04 327,157.5C 324.107,156.289 321.44,154.622 319,152.5C 318.502,155.482 318.335,158.482 318.5,161.5C 321.407,161.575 324.073,162.409 326.5,164C 325.803,166.159 326.137,168.326 327.5,170.5C 325.664,171.919 323.664,173.086 321.5,174C 322.38,179.698 321.547,179.865 319,174.5C 317.692,176.641 316.192,178.641 314.5,180.5C 313.319,178.865 313.319,177.198 314.5,175.5C 312.78,174.066 310.78,173.233 308.5,173C 309.949,171.883 311.616,171.216 313.5,171C 312.376,170.751 311.376,170.251 310.5,169.5C 312.828,168.276 315.161,168.276 317.5,169.5C 318.047,167.288 317.047,165.621 314.5,164.5C 313.167,165.5 311.833,166.5 310.5,167.5C 310.167,167.167 309.833,166.833 309.5,166.5C 310.623,162.755 310.29,159.088 308.5,155.5C 306.885,156.154 305.218,156.654 303.5,157C 304.423,159.041 304.756,161.208 304.5,163.5C 302.193,163.986 300.027,163.986 298,163.5C 296.494,166.474 294.828,166.807 293,164.5C 292.995,167.229 291.829,169.229 289.5,170.5C 289.406,168.761 289.239,166.761 289,164.5C 287.812,165.563 287.312,166.897 287.5,168.5C 285.508,168.328 283.842,168.995 282.5,170.5C 281.727,167.369 283.061,165.202 286.5,164C 283.596,163.041 280.929,162.541 278.5,162.5C 279.768,160.953 281.435,159.953 283.5,159.5C 284.451,160.326 285.451,160.492 286.5,160C 284.974,158.113 282.974,157.113 280.5,157C 282.937,155.625 285.603,155.125 288.5,155.5C 288.78,159.225 290.78,160.392 294.5,159C 295.773,154.739 294.107,152.239 289.5,151.5C 293.112,149.191 297.112,148.024 301.5,148C 300,147.167 298.833,146 298,144.5C 296.989,145.337 295.822,145.67 294.5,145.5C 294.66,143.801 294.494,142.134 294,140.5C 292.324,141.1 290.657,142.433 289,144.5C 287.093,144.579 285.093,144.246 283,143.5C 282.667,145.167 282.333,146.833 282,148.5C 280.951,149.517 279.784,149.684 278.5,149C 279.731,147.817 279.731,146.651 278.5,145.5C 277.833,146.167 277.167,146.833 276.5,147.5C 269.913,146.682 270.246,145.182 277.5,143C 268.34,139.812 268.673,138.479 278.5,139C 277.33,137.245 275.663,136.245 273.5,136C 275.272,134.513 277.272,134.18 279.5,135C 280.337,136.011 280.67,137.178 280.5,138.5C 291.013,137.275 291.68,134.775 282.5,131C 282.833,130.667 283.167,130.333 283.5,130C 282.167,129.333 280.833,128.667 279.5,128C 280.731,126.817 280.731,125.651 279.5,124.5C 277.87,123.102 276.036,122.102 274,121.5C 273.333,120.5 273.333,119.5 274,118.5C 274.965,120.26 276.132,120.594 277.5,119.5C 275.955,117.56 273.955,116.394 271.5,116C 273.831,114.249 276.164,114.415 278.5,116.5C 279.367,113.638 278.367,111.471 275.5,110C 279.723,109.213 281.889,111.047 282,115.5C 282.862,113.913 283.529,112.246 284,110.5C 285.848,113.177 285.681,115.844 283.5,118.5C 285.17,121.035 287.17,123.201 289.5,125C 294.092,124.4 298.759,123.734 303.5,123C 303.833,122.667 304.167,122.333 304.5,122C 302.866,121.506 301.199,121.34 299.5,121.5C 299.5,120.5 299.5,119.5 299.5,118.5C 306.167,117.5 306.167,116.5 299.5,115.5C 299.034,113.799 299.034,112.299 299.5,111C 302.628,110.159 305.628,109.325 308.5,108.5 Z"/></g>
<g><path style="opacity:1" fill="#df444c" d="M 291.5,112.5 C 293.824,112.662 295.491,113.828 296.5,116C 298.5,116.333 300.5,116.667 302.5,117C 296.735,120.157 293.069,118.657 291.5,112.5 Z"/></g>
<g><path style="opacity:1" fill="#e4353f" d="M 447.5,108.5 C 453.077,107.945 455.744,110.112 455.5,115C 455.156,116.365 454.489,117.532 453.5,118.5C 454.938,122.082 456.272,125.748 457.5,129.5C 456.167,129.5 454.833,129.5 453.5,129.5C 454.562,132.103 454.728,134.77 454,137.5C 452.853,136.542 451.853,136.875 451,138.5C 450.784,136.616 450.117,134.949 449,133.5C 449.505,144.682 455.338,151.015 466.5,152.5C 466.823,147.967 464.823,145.134 460.5,144C 458.191,141.285 456.857,138.118 456.5,134.5C 458.485,132.543 459.985,130.21 461,127.5C 464,125.167 467,122.833 470,120.5C 472.736,115.821 471.569,113.321 466.5,113C 465.663,114.011 465.33,115.178 465.5,116.5C 469.306,117.813 468.973,118.98 464.5,120C 462.367,121.402 460.7,123.235 459.5,125.5C 455.562,123.101 455.562,120.601 459.5,118C 456.33,116.83 455.83,114.997 458,112.5C 460.573,115.005 462.74,114.505 464.5,111C 472.748,110.258 475.248,113.758 472,121.5C 469.78,124.021 467.28,126.188 464.5,128C 465.458,129.147 465.125,130.147 463.5,131C 465.167,130.667 466.833,130.333 468.5,130C 466.107,132.028 464.274,134.195 463,136.5C 465.172,135.415 467.172,134.081 469,132.5C 469.667,133.167 469.667,133.833 469,134.5C 467.22,136.293 465.387,137.96 463.5,139.5C 463.667,139.833 463.833,140.167 464,140.5C 466.029,138.74 468.196,137.573 470.5,137C 469.696,138.771 468.529,140.271 467,141.5C 467.524,144.581 468.691,147.581 470.5,150.5C 473.47,150.995 475.804,152.495 477.5,155C 475.965,155.496 474.465,155.33 473,154.5C 468.197,158.678 463.697,158.345 459.5,153.5C 457.885,155.622 457.385,157.955 458,160.5C 460.761,161.796 463.595,162.963 466.5,164C 464.541,165.684 464.541,167.684 466.5,170C 465.057,171.067 463.724,172.234 462.5,173.5C 461.362,180.559 459.862,180.892 458,174.5C 456.274,176.228 454.941,178.228 454,180.5C 452.228,179.01 452.061,177.343 453.5,175.5C 444.52,174.613 444.52,173.113 453.5,171C 452.672,170.085 451.672,169.419 450.5,169C 452.995,168.843 455.328,168.676 457.5,168.5C 455.402,163.842 452.902,163.508 450,167.5C 449.675,163.384 448.841,159.384 447.5,155.5C 445.885,156.154 444.218,156.654 442.5,157C 443.423,159.041 443.756,161.208 443.5,163.5C 440.951,163.387 438.618,164.054 436.5,165.5C 435.158,164.098 434.324,164.431 434,166.5C 433.333,165.833 432.667,165.167 432,164.5C 431.667,166.167 431.333,167.833 431,169.5C 429.951,170.517 428.784,170.684 427.5,170C 428.554,168.612 428.72,167.112 428,165.5C 426.488,167.686 424.488,169.353 422,170.5C 420.958,167.196 422.125,165.029 425.5,164C 422.99,163.624 420.657,162.79 418.5,161.5C 419,160.119 420,159.453 421.5,159.5C 423.155,160.228 424.821,160.395 426.5,160C 418.641,156.62 419.308,155.12 428.5,155.5C 428.5,156.833 428.5,158.167 428.5,159.5C 431.157,159.838 433.49,159.171 435.5,157.5C 434.05,156.15 433.383,154.484 433.5,152.5C 431.712,152.785 430.045,152.452 428.5,151.5C 432.112,149.191 436.112,148.024 440.5,148C 439.333,146.833 438.167,145.667 437,144.5C 435.951,145.517 434.784,145.684 433.5,145C 434.535,143.493 434.368,141.993 433,140.5C 430,142.167 427,143.833 424,145.5C 423.333,144.833 422.667,144.167 422,143.5C 421.667,145.167 421.333,146.833 421,148.5C 419.951,149.517 418.784,149.684 417.5,149C 418.517,147.951 418.684,146.784 418,145.5C 416,146.167 414,146.833 412,147.5C 411.517,146.552 411.351,145.552 411.5,144.5C 413.308,144.509 414.975,144.009 416.5,143C 408.42,139.541 408.754,138.207 417.5,139C 416.495,137.493 415.162,136.327 413.5,135.5C 417.143,133.767 419.81,134.767 421.5,138.5C 424.056,137.949 426.389,136.949 428.5,135.5C 425.518,132.459 422.185,129.959 418.5,128C 419.022,127.439 419.355,126.772 419.5,126C 417.273,124.294 415.106,122.46 413,120.5C 412.316,119.216 412.483,118.049 413.5,117C 409.718,116.066 409.885,115.232 414,114.5C 415.711,114.439 417.044,115.106 418,116.5C 418.17,114.017 417.336,111.851 415.5,110C 419.203,109.701 421.036,111.534 421,115.5C 422.117,114.051 422.784,112.384 423,110.5C 425.964,113.043 426.13,115.876 423.5,119C 425.117,122.45 427.784,124.617 431.5,125.5C 435.454,124.316 439.454,123.316 443.5,122.5C 441.955,121.548 440.288,121.215 438.5,121.5C 438.5,120.5 438.5,119.5 438.5,118.5C 440.288,118.785 441.955,118.452 443.5,117.5C 442.332,115.783 440.665,115.116 438.5,115.5C 438.238,114.022 438.571,112.689 439.5,111.5C 442.092,110.083 444.759,109.083 447.5,108.5 Z"/></g>
<g><path style="opacity:1" fill="#e0454c" d="M 430.5,112.5 C 433.114,112.277 434.781,113.444 435.5,116C 437.167,116.333 438.833,116.667 440.5,117C 435.062,119.982 431.729,118.482 430.5,112.5 Z"/></g>
<g><path style="opacity:1" fill="#f4cf11" d="M 122.5,231.5 C 122.5,229.167 122.5,226.833 122.5,224.5C 121.209,224.263 120.209,224.596 119.5,225.5C 117.143,225.663 114.81,225.497 112.5,225C 116.877,223.795 119.21,220.961 119.5,216.5C 117.833,216.5 116.167,216.5 114.5,216.5C 117.311,212.027 117.145,207.693 114,203.5C 107.607,199.799 105.44,201.466 107.5,208.5C 106.21,209.408 104.877,209.241 103.5,208C 97.4139,204.578 94.9139,199.411 96,192.5C 99.5422,186.124 104.376,184.957 110.5,189C 117.144,195.791 120.978,203.958 122,213.5C 122.667,210.167 122.667,206.833 122,203.5C 120.333,198.167 118.667,192.833 117,187.5C 114.846,177.299 117.512,168.633 125,161.5C 130.97,166.608 134.137,173.108 134.5,181C 133.373,188.009 131.539,194.842 129,201.5C 128.333,205.5 128.333,209.5 129,213.5C 129.64,204.059 133.14,195.892 139.5,189C 145.118,185.19 149.951,186.023 154,191.5C 155.874,198.011 154.041,203.178 148.5,207C 147.034,207.635 145.7,208.469 144.5,209.5C 144.113,207.269 143.947,204.936 144,202.5C 140.952,200.302 138.286,200.968 136,204.5C 132.97,208.445 132.803,212.445 135.5,216.5C 133.712,216.215 132.045,216.548 130.5,217.5C 131.972,220.805 134.305,223.305 137.5,225C 134.571,225.777 131.737,225.61 129,224.5C 128.667,226.833 128.333,229.167 128,231.5C 126.261,236.723 124.427,236.723 122.5,231.5 Z"/></g>
<g><path style="opacity:1" fill="#4b556b" d="M 187.5,157.5 C 188.152,158.449 188.486,159.615 188.5,161C 187.941,165.277 187.274,165.444 186.5,161.5C 187.434,160.432 187.768,159.099 187.5,157.5 Z"/></g>
<g><path style="opacity:1" fill="#545968" d="M 194.5,155.5 C 194.205,157.735 194.539,159.735 195.5,161.5C 195.719,162.675 195.386,163.675 194.5,164.5C 193.197,161.355 193.197,158.355 194.5,155.5 Z"/></g>
<g><path style="opacity:1" fill="#e4353f" d="M 381.5,168.5 C 384.525,168.231 387.192,169.064 389.5,171C 389.374,172.974 389.208,175.141 389,177.5C 387,178.5 387,179.5 389,180.5C 389.626,183.863 389.959,187.196 390,190.5C 389.465,188.729 388.631,188.396 387.5,189.5C 388.393,192.084 388.726,194.751 388.5,197.5C 386.41,197.45 385.077,198.45 384.5,200.5C 385.236,202.541 386.069,204.541 387,206.5C 390.994,208.555 394.827,210.889 398.5,213.5C 400.384,212.307 400.884,210.641 400,208.5C 397.554,206.041 395.054,203.708 392.5,201.5C 391.582,199.242 390.915,196.909 390.5,194.5C 393.138,188.695 397.305,184.362 403,181.5C 404.422,178.97 404.755,176.303 404,173.5C 400.85,171.839 399.35,172.839 399.5,176.5C 401.355,176.272 402.188,176.939 402,178.5C 398.305,179.699 395.805,182.032 394.5,185.5C 390.218,184.314 389.551,181.98 392.5,178.5C 390.24,176.593 390.073,174.593 392,172.5C 394.573,175.005 396.74,174.505 398.5,171C 406.748,170.258 409.248,173.758 406,181.5C 403.106,184.361 399.939,186.861 396.5,189C 398.891,189.691 398.891,190.691 396.5,192C 396.833,192.167 397.167,192.333 397.5,192.5C 398.62,191.167 399.953,190.667 401.5,191C 399.5,192.667 397.5,194.333 395.5,196C 397.846,195.921 400.013,195.088 402,193.5C 402.667,194.167 402.667,194.833 402,195.5C 399.842,196.826 398.008,198.493 396.5,200.5C 398.872,200.202 401.038,198.869 403,196.5C 402.333,199.167 401.667,201.833 401,204.5C 402.967,209.534 406.467,213.034 411.5,215C 409.965,215.496 408.465,215.33 407,214.5C 402.111,218.819 397.611,218.485 393.5,213.5C 391.946,215.933 391.28,218.6 391.5,221.5C 394.523,221.517 397.19,222.517 399.5,224.5C 398.897,226.452 399.23,228.452 400.5,230.5C 398.5,231.833 396.5,233.167 394.5,234.5C 395.939,236.343 395.772,238.01 394,239.5C 393.71,237.956 393.044,236.623 392,235.5C 390.287,236.878 388.953,238.545 388,240.5C 386.228,239.01 386.061,237.343 387.5,235.5C 378.52,234.613 378.52,233.113 387.5,231C 386.167,230.667 384.833,230.333 383.5,230C 385.674,228.203 388.007,228.036 390.5,229.5C 391.047,227.288 390.047,225.621 387.5,224.5C 386.481,225.687 385.314,226.687 384,227.5C 383.675,223.384 382.841,219.384 381.5,215.5C 379.885,216.154 378.218,216.654 376.5,217C 377.423,219.041 377.756,221.208 377.5,223.5C 375.193,223.986 373.027,223.986 371,223.5C 370,224.5 369,225.5 368,226.5C 367.333,225.833 366.667,225.167 366,224.5C 365.667,226.167 365.333,227.833 365,229.5C 363.951,230.517 362.784,230.684 361.5,230C 362.554,228.612 362.72,227.112 362,225.5C 360.488,227.686 358.488,229.353 356,230.5C 354.958,227.196 356.125,225.029 359.5,224C 356.681,223.017 354.014,222.517 351.5,222.5C 352.768,220.953 354.435,219.953 356.5,219.5C 357.451,220.326 358.451,220.492 359.5,220C 358.284,218.26 356.618,217.26 354.5,217C 354.833,216.667 355.167,216.333 355.5,216C 357.847,215.666 360.181,215.833 362.5,216.5C 362.5,217.5 362.5,218.5 362.5,219.5C 368.282,220.175 369.949,217.841 367.5,212.5C 365.712,212.785 364.045,212.452 362.5,211.5C 366.112,209.191 370.112,208.024 374.5,208C 373,207.167 371.833,206 371,204.5C 369.989,205.337 368.822,205.67 367.5,205.5C 367.66,203.801 367.494,202.134 367,200.5C 364.432,201.974 361.432,203.641 358,205.5C 357.333,204.833 356.667,204.167 356,203.5C 355.667,205.167 355.333,206.833 355,208.5C 353.951,209.517 352.784,209.684 351.5,209C 352.982,205.243 352.316,204.743 349.5,207.5C 342.913,206.682 343.246,205.182 350.5,203C 342.42,199.541 342.754,198.207 351.5,199C 350.33,197.245 348.663,196.245 346.5,196C 348.272,194.513 350.272,194.18 352.5,195C 355.765,199.554 359.098,199.554 362.5,195C 359.349,192.345 356.015,190.011 352.5,188C 353.731,186.817 353.731,185.651 352.5,184.5C 350.05,183.289 348.05,181.622 346.5,179.5C 347.664,179.835 348.997,179.835 350.5,179.5C 348.955,177.56 346.955,176.394 344.5,176C 345.43,175.009 346.596,174.509 348,174.5C 349.585,175.245 351.085,175.745 352.5,176C 351.911,173.486 350.578,171.486 348.5,170C 352.723,169.213 354.889,171.047 355,175.5C 356.117,174.051 356.784,172.384 357,170.5C 358.819,173.168 358.985,176.001 357.5,179C 358.995,184.08 362.328,186.08 367.5,185C 370.818,184.121 374.152,183.287 377.5,182.5C 375.955,181.548 374.288,181.215 372.5,181.5C 372.5,180.5 372.5,179.5 372.5,178.5C 374.288,178.785 375.955,178.452 377.5,177.5C 376.332,175.783 374.665,175.116 372.5,175.5C 372.238,174.022 372.571,172.689 373.5,171.5C 376.092,170.083 378.759,169.083 381.5,168.5 Z"/></g>
<g><path style="opacity:1" fill="#e0464d" d="M 364.5,172.5 C 366.824,172.662 368.491,173.828 369.5,176C 371.5,176.333 373.5,176.667 375.5,177C 369.735,180.157 366.069,178.657 364.5,172.5 Z"/></g>
<g><path style="opacity:1" fill="#5a6062" d="M 119.5,225.5 C 120.209,224.596 121.209,224.263 122.5,224.5C 122.5,226.833 122.5,229.167 122.5,231.5C 122.06,229.156 121.06,227.156 119.5,225.5 Z"/></g>
<g><path style="opacity:0.999" fill="#fdfcfc" d="M -0.5,249.5 C 82.8333,249.5 166.167,249.5 249.5,249.5C 249.5,299.5 249.5,349.5 249.5,399.5C 176.499,399.667 103.499,399.5 30.5,399C 14.3186,394.651 3.98523,384.484 -0.5,368.5C -0.5,328.833 -0.5,289.167 -0.5,249.5 Z"/></g>
<g><path style="opacity:1" fill="#022394" d="M 249.5,249.5 C 332.833,249.5 416.167,249.5 499.5,249.5C 499.5,289.167 499.5,328.833 499.5,368.5C 495.015,384.484 484.681,394.651 468.5,399C 395.501,399.5 322.501,399.667 249.5,399.5C 249.5,349.5 249.5,299.5 249.5,249.5 Z"/></g>
<g><path style="opacity:1" fill="#f4cf12" d="M 308.5,262.5 C 317.014,269.568 319.848,278.568 317,289.5C 313.469,297.489 312.135,305.822 313,314.5C 313.635,305.067 317.135,296.9 323.5,290C 329.118,286.19 333.951,287.023 338,292.5C 339.534,298.899 337.701,304.065 332.5,308C 331.034,308.635 329.7,309.469 328.5,310.5C 328.113,308.269 327.947,305.936 328,303.5C 321.494,302.48 317.994,305.48 317.5,312.5C 318.547,314.056 319.214,315.723 319.5,317.5C 317.712,317.215 316.045,317.548 314.5,318.5C 315.972,321.805 318.305,324.305 321.5,326C 318.571,326.777 315.737,326.61 313,325.5C 310.368,341.464 307.701,341.464 305,325.5C 296.204,327.491 295.204,326.491 302,322.5C 303.009,320.975 303.509,319.308 303.5,317.5C 301.833,317.5 300.167,317.5 298.5,317.5C 301.217,313.104 301.05,308.771 298,304.5C 296.087,302.813 293.92,302.313 291.5,303C 290.755,305.571 290.421,308.071 290.5,310.5C 282.401,307.63 278.901,301.963 280,293.5C 283.542,287.124 288.376,285.957 294.5,290C 301.15,296.769 304.817,304.935 305.5,314.5C 306.652,311.894 306.818,309.227 306,306.5C 303.227,298.354 301.394,290.021 300.5,281.5C 300.695,274.112 303.361,267.779 308.5,262.5 Z"/></g>
<g><path style="opacity:1" fill="#f4cf12" d="M 444.5,305.5 C 443.197,308.355 443.197,311.355 444.5,314.5C 445.386,313.675 445.719,312.675 445.5,311.5C 446.243,303.096 449.576,295.929 455.5,290C 461.118,286.19 465.951,287.023 470,292.5C 471.48,302.082 467.646,307.915 458.5,310C 459.435,307.619 459.768,305.119 459.5,302.5C 450.292,303.913 447.625,308.913 451.5,317.5C 449.833,317.5 448.167,317.5 446.5,317.5C 447.485,321.33 449.819,324.163 453.5,326C 450.571,326.777 447.737,326.61 445,325.5C 442.407,341.422 439.574,341.422 436.5,325.5C 433.897,326.562 431.23,326.728 428.5,326C 432.529,324.478 434.863,321.645 435.5,317.5C 433.833,317.5 432.167,317.5 430.5,317.5C 434.375,308.913 431.708,303.913 422.5,302.5C 422.232,305.119 422.565,307.619 423.5,310C 414.687,308.161 410.854,302.661 412,293.5C 415.542,287.124 420.376,285.957 426.5,290C 432.662,295.825 435.995,302.991 436.5,311.5C 437.274,315.444 437.941,315.277 438.5,311C 438.486,309.615 438.152,308.449 437.5,307.5C 435.52,298.858 433.52,290.192 431.5,281.5C 432.538,274.091 435.704,267.758 441,262.5C 449.035,269.841 451.702,278.841 449,289.5C 446.983,294.713 445.483,300.046 444.5,305.5 Z"/></g>
<g><path style="opacity:1" fill="#e4353f" d="M 58.5,258.5 C 65.8887,259.119 67.8887,262.619 64.5,269C 65.1814,272.403 66.1814,275.736 67.5,279C 67.3333,279.5 67.1667,280 67,280.5C 66.4646,278.729 65.6313,278.396 64.5,279.5C 65.3928,282.084 65.7261,284.751 65.5,287.5C 63.1511,287.458 61.8178,288.625 61.5,291C 62,292.5 62.5,294 63,295.5C 65.9499,298.031 69.1165,300.198 72.5,302C 74.1341,302.494 75.8008,302.66 77.5,302.5C 77.1494,298.299 74.9828,295.299 71,293.5C 69.3396,290.77 67.8396,287.937 66.5,285C 70.2763,278.889 75.1097,273.722 81,269.5C 81.7581,267.231 81.5914,265.064 80.5,263C 77.5096,262.153 76.1762,263.32 76.5,266.5C 78.3547,266.272 79.1881,266.939 79,268.5C 75.1781,269.528 72.6781,271.862 71.5,275.5C 67.0038,274.539 66.3371,272.206 69.5,268.5C 66.335,264.505 67.0017,262.838 71.5,263.5C 73.6314,262.037 75.9647,261.037 78.5,260.5C 83.7895,261.304 85.6229,264.304 84,269.5C 81.575,273.134 78.4083,275.968 74.5,278C 76.8912,278.691 76.8912,279.691 74.5,281C 75.9961,281.507 77.1627,281.007 78,279.5C 78.1667,279.833 78.3333,280.167 78.5,280.5C 77.2519,282.459 75.5852,283.959 73.5,285C 75.2555,285.14 76.9222,284.64 78.5,283.5C 78.8333,283.833 79.1667,284.167 79.5,284.5C 77.5,286.5 75.5,288.5 73.5,290.5C 73.6667,290.833 73.8333,291.167 74,291.5C 75.8153,289.595 77.8153,287.928 80,286.5C 79.2914,289.187 78.6247,291.854 78,294.5C 79.9673,299.534 83.4673,303.034 88.5,305C 86.9651,305.496 85.4651,305.33 84,304.5C 81.9171,306.04 79.5837,307.04 77,307.5C 74.1066,306.289 71.44,304.622 69,302.5C 68.502,305.482 68.3354,308.482 68.5,311.5C 71.4067,311.575 74.0734,312.409 76.5,314C 75.8033,316.159 76.1366,318.326 77.5,320.5C 75.6641,321.919 73.6641,323.086 71.5,324C 72.3801,329.698 71.5467,329.865 69,324.5C 67.6924,326.641 66.1924,328.641 64.5,330.5C 63.3192,328.865 63.3192,327.198 64.5,325.5C 62.7801,324.066 60.7801,323.233 58.5,323C 59.9494,321.883 61.6161,321.216 63.5,321C 62.376,320.751 61.376,320.251 60.5,319.5C 62.8275,318.276 65.1608,318.276 67.5,319.5C 68.0469,317.288 67.0469,315.621 64.5,314.5C 63.1667,315.5 61.8333,316.5 60.5,317.5C 60.1667,317.167 59.8333,316.833 59.5,316.5C 60.623,312.755 60.2897,309.088 58.5,305.5C 56.8849,306.154 55.2182,306.654 53.5,307C 54.4231,309.041 54.7564,311.208 54.5,313.5C 52.1933,313.986 50.0266,313.986 48,313.5C 46.4943,316.474 44.8276,316.807 43,314.5C 42.9953,317.229 41.8287,319.229 39.5,320.5C 39.4062,318.761 39.2395,316.761 39,314.5C 37.8118,315.563 37.3118,316.897 37.5,318.5C 35.5082,318.328 33.8415,318.995 32.5,320.5C 31.7274,317.369 33.0607,315.202 36.5,314C 33.5959,313.041 30.9292,312.541 28.5,312.5C 29.7682,310.953 31.4348,309.953 33.5,309.5C 34.451,310.326 35.451,310.492 36.5,310C 34.9739,308.113 32.9739,307.113 30.5,307C 32.9368,305.625 35.6035,305.125 38.5,305.5C 38.7796,309.225 40.7796,310.392 44.5,309C 45.7733,304.739 44.1066,302.239 39.5,301.5C 43.1121,299.191 47.1121,298.024 51.5,298C 50,297.167 48.8333,296 48,294.5C 46.9887,295.337 45.8221,295.67 44.5,295.5C 44.6602,293.801 44.4935,292.134 44,290.5C 42.3238,291.1 40.6572,292.433 39,294.5C 37.0932,294.579 35.0932,294.246 33,293.5C 32.6667,295.167 32.3333,296.833 32,298.5C 30.9505,299.517 29.7839,299.684 28.5,299C 29.731,297.817 29.731,296.651 28.5,295.5C 27.8333,296.167 27.1667,296.833 26.5,297.5C 19.9131,296.682 20.2465,295.182 27.5,293C 18.3397,289.812 18.6731,288.479 28.5,289C 27.33,287.245 25.6633,286.245 23.5,286C 25.272,284.513 27.272,284.18 29.5,285C 30.3366,286.011 30.67,287.178 30.5,288.5C 41.013,287.275 41.6796,284.775 32.5,281C 32.8333,280.667 33.1667,280.333 33.5,280C 32.1667,279.333 30.8333,278.667 29.5,278C 30.731,276.817 30.731,275.651 29.5,274.5C 27.8697,273.102 26.0363,272.102 24,271.5C 23.3333,270.5 23.3333,269.5 24,268.5C 24.9653,270.26 26.132,270.594 27.5,269.5C 25.9546,267.56 23.9546,266.394 21.5,266C 23.8309,264.249 26.1642,264.415 28.5,266.5C 29.3674,263.638 28.3674,261.471 25.5,260C 29.7226,259.213 31.8893,261.047 32,265.5C 32.8624,263.913 33.5291,262.246 34,260.5C 35.848,263.177 35.6813,265.844 33.5,268.5C 35.1698,271.035 37.1698,273.201 39.5,275C 44.0919,274.4 48.7586,273.734 53.5,273C 53.8333,272.667 54.1667,272.333 54.5,272C 52.8659,271.506 51.1992,271.34 49.5,271.5C 49.5,270.5 49.5,269.5 49.5,268.5C 56.1667,267.5 56.1667,266.5 49.5,265.5C 49.0338,263.799 49.0338,262.299 49.5,261C 52.6282,260.159 55.6282,259.325 58.5,258.5 Z"/></g>
<g><path style="opacity:1" fill="#df444c" d="M 41.5,262.5 C 43.8244,262.662 45.4911,263.828 46.5,266C 48.5,266.333 50.5,266.667 52.5,267C 46.7352,270.157 43.0685,268.657 41.5,262.5 Z"/></g>
<g><path style="opacity:1" fill="#e4353f" d="M 197.5,258.5 C 203.077,257.945 205.744,260.112 205.5,265C 205.156,266.365 204.489,267.532 203.5,268.5C 204.938,272.082 206.272,275.748 207.5,279.5C 206.167,279.5 204.833,279.5 203.5,279.5C 204.562,282.103 204.728,284.77 204,287.5C 202.853,286.542 201.853,286.875 201,288.5C 200.784,286.616 200.117,284.949 199,283.5C 199.505,294.682 205.338,301.015 216.5,302.5C 216.823,297.967 214.823,295.134 210.5,294C 208.191,291.285 206.857,288.118 206.5,284.5C 208.485,282.543 209.985,280.21 211,277.5C 214,275.167 217,272.833 220,270.5C 222.736,265.821 221.569,263.321 216.5,263C 215.663,264.011 215.33,265.178 215.5,266.5C 219.306,267.813 218.973,268.98 214.5,270C 212.367,271.402 210.7,273.235 209.5,275.5C 205.562,273.101 205.562,270.601 209.5,268C 206.33,266.83 205.83,264.997 208,262.5C 210.573,265.005 212.74,264.505 214.5,261C 222.748,260.258 225.248,263.758 222,271.5C 219.78,274.021 217.28,276.188 214.5,278C 215.458,279.147 215.125,280.147 213.5,281C 215.167,280.667 216.833,280.333 218.5,280C 216.107,282.028 214.274,284.195 213,286.5C 215.172,285.415 217.172,284.081 219,282.5C 219.667,283.167 219.667,283.833 219,284.5C 217.22,286.293 215.387,287.96 213.5,289.5C 213.667,289.833 213.833,290.167 214,290.5C 216.029,288.74 218.196,287.573 220.5,287C 219.696,288.771 218.529,290.271 217,291.5C 217.524,294.581 218.691,297.581 220.5,300.5C 223.47,300.995 225.804,302.495 227.5,305C 225.965,305.496 224.465,305.33 223,304.5C 218.197,308.678 213.697,308.345 209.5,303.5C 207.885,305.622 207.385,307.955 208,310.5C 210.761,311.796 213.595,312.963 216.5,314C 214.541,315.684 214.541,317.684 216.5,320C 215.057,321.067 213.724,322.234 212.5,323.5C 211.362,330.559 209.862,330.892 208,324.5C 206.274,326.228 204.941,328.228 204,330.5C 202.228,329.01 202.061,327.343 203.5,325.5C 194.52,324.613 194.52,323.113 203.5,321C 202.672,320.085 201.672,319.419 200.5,319C 202.995,318.843 205.328,318.676 207.5,318.5C 205.402,313.842 202.902,313.508 200,317.5C 199.675,313.384 198.841,309.384 197.5,305.5C 195.885,306.154 194.218,306.654 192.5,307C 193.423,309.041 193.756,311.208 193.5,313.5C 190.951,313.387 188.618,314.054 186.5,315.5C 185.158,314.098 184.324,314.431 184,316.5C 183.333,315.833 182.667,315.167 182,314.5C 181.667,316.167 181.333,317.833 181,319.5C 179.951,320.517 178.784,320.684 177.5,320C 178.554,318.612 178.72,317.112 178,315.5C 176.488,317.686 174.488,319.353 172,320.5C 170.958,317.196 172.125,315.029 175.5,314C 172.99,313.624 170.657,312.79 168.5,311.5C 169,310.119 170,309.453 171.5,309.5C 173.155,310.228 174.821,310.395 176.5,310C 168.641,306.62 169.308,305.12 178.5,305.5C 178.5,306.833 178.5,308.167 178.5,309.5C 181.157,309.838 183.49,309.171 185.5,307.5C 184.05,306.15 183.383,304.484 183.5,302.5C 181.712,302.785 180.045,302.452 178.5,301.5C 182.112,299.191 186.112,298.024 190.5,298C 189.333,296.833 188.167,295.667 187,294.5C 185.951,295.517 184.784,295.684 183.5,295C 184.535,293.493 184.368,291.993 183,290.5C 180,292.167 177,293.833 174,295.5C 173.333,294.833 172.667,294.167 172,293.5C 171.667,295.167 171.333,296.833 171,298.5C 169.951,299.517 168.784,299.684 167.5,299C 168.517,297.951 168.684,296.784 168,295.5C 166,296.167 164,296.833 162,297.5C 161.517,296.552 161.351,295.552 161.5,294.5C 163.308,294.509 164.975,294.009 166.5,293C 158.42,289.541 158.754,288.207 167.5,289C 166.495,287.493 165.162,286.327 163.5,285.5C 167.143,283.767 169.81,284.767 171.5,288.5C 174.056,287.949 176.389,286.949 178.5,285.5C 175.518,282.459 172.185,279.959 168.5,278C 169.022,277.439 169.355,276.772 169.5,276C 167.273,274.294 165.106,272.46 163,270.5C 162.316,269.216 162.483,268.049 163.5,267C 159.718,266.066 159.885,265.232 164,264.5C 165.711,264.439 167.044,265.106 168,266.5C 168.17,264.017 167.336,261.851 165.5,260C 169.203,259.701 171.036,261.534 171,265.5C 172.117,264.051 172.784,262.384 173,260.5C 175.964,263.043 176.13,265.876 173.5,269C 175.117,272.45 177.784,274.617 181.5,275.5C 185.454,274.316 189.454,273.316 193.5,272.5C 191.955,271.548 190.288,271.215 188.5,271.5C 188.5,270.5 188.5,269.5 188.5,268.5C 190.288,268.785 191.955,268.452 193.5,267.5C 192.332,265.783 190.665,265.116 188.5,265.5C 188.238,264.022 188.571,262.689 189.5,261.5C 192.092,260.083 194.759,259.083 197.5,258.5 Z"/></g>
<g><path style="opacity:1" fill="#e0454c" d="M 180.5,262.5 C 183.114,262.277 184.781,263.444 185.5,266C 187.167,266.333 188.833,266.667 190.5,267C 185.062,269.982 181.729,268.482 180.5,262.5 Z"/></g>
<g><path style="opacity:1" fill="#f4cf11" d="M 372.5,381.5 C 372.5,379.167 372.5,376.833 372.5,374.5C 371.209,374.263 370.209,374.596 369.5,375.5C 367.143,375.663 364.81,375.497 362.5,375C 366.877,373.795 369.21,370.961 369.5,366.5C 367.833,366.5 366.167,366.5 364.5,366.5C 367.311,362.027 367.145,357.693 364,353.5C 357.607,349.799 355.44,351.466 357.5,358.5C 356.21,359.408 354.877,359.241 353.5,358C 347.414,354.578 344.914,349.411 346,342.5C 349.542,336.124 354.376,334.957 360.5,339C 367.144,345.791 370.978,353.958 372,363.5C 372.667,360.167 372.667,356.833 372,353.5C 370.333,348.167 368.667,342.833 367,337.5C 364.846,327.299 367.512,318.633 375,311.5C 380.97,316.608 384.137,323.108 384.5,331C 383.373,338.009 381.539,344.842 379,351.5C 378.333,355.5 378.333,359.5 379,363.5C 379.64,354.059 383.14,345.892 389.5,339C 395.118,335.19 399.951,336.023 404,341.5C 405.874,348.011 404.041,353.178 398.5,357C 397.034,357.635 395.7,358.469 394.5,359.5C 394.113,357.269 393.947,354.936 394,352.5C 390.952,350.302 388.286,350.968 386,354.5C 382.97,358.445 382.803,362.445 385.5,366.5C 383.712,366.215 382.045,366.548 380.5,367.5C 381.972,370.805 384.305,373.305 387.5,375C 384.571,375.777 381.737,375.61 379,374.5C 378.667,376.833 378.333,379.167 378,381.5C 376.261,386.723 374.427,386.723 372.5,381.5 Z"/></g>
<g><path style="opacity:1" fill="#4b556b" d="M 437.5,307.5 C 438.152,308.449 438.486,309.615 438.5,311C 437.941,315.277 437.274,315.444 436.5,311.5C 437.434,310.432 437.768,309.099 437.5,307.5 Z"/></g>
<g><path style="opacity:1" fill="#545968" d="M 444.5,305.5 C 444.205,307.735 444.539,309.735 445.5,311.5C 445.719,312.675 445.386,313.675 444.5,314.5C 443.197,311.355 443.197,308.355 444.5,305.5 Z"/></g>
<g><path style="opacity:1" fill="#e4353f" d="M 131.5,318.5 C 134.525,318.231 137.192,319.064 139.5,321C 139.374,322.974 139.208,325.141 139,327.5C 137,328.5 137,329.5 139,330.5C 139.626,333.863 139.959,337.196 140,340.5C 139.465,338.729 138.631,338.396 137.5,339.5C 138.393,342.084 138.726,344.751 138.5,347.5C 136.41,347.45 135.077,348.45 134.5,350.5C 135.236,352.541 136.069,354.541 137,356.5C 140.994,358.555 144.827,360.889 148.5,363.5C 150.384,362.307 150.884,360.641 150,358.5C 147.554,356.041 145.054,353.708 142.5,351.5C 141.582,349.242 140.915,346.909 140.5,344.5C 143.138,338.695 147.305,334.362 153,331.5C 154.422,328.97 154.755,326.303 154,323.5C 150.85,321.839 149.35,322.839 149.5,326.5C 151.355,326.272 152.188,326.939 152,328.5C 148.305,329.699 145.805,332.032 144.5,335.5C 140.218,334.314 139.551,331.98 142.5,328.5C 140.24,326.593 140.073,324.593 142,322.5C 144.573,325.005 146.74,324.505 148.5,321C 156.748,320.258 159.248,323.758 156,331.5C 153.106,334.361 149.939,336.861 146.5,339C 148.891,339.691 148.891,340.691 146.5,342C 146.833,342.167 147.167,342.333 147.5,342.5C 148.62,341.167 149.953,340.667 151.5,341C 149.5,342.667 147.5,344.333 145.5,346C 147.846,345.921 150.013,345.088 152,343.5C 152.667,344.167 152.667,344.833 152,345.5C 149.842,346.826 148.008,348.493 146.5,350.5C 148.872,350.202 151.038,348.869 153,346.5C 152.333,349.167 151.667,351.833 151,354.5C 152.967,359.534 156.467,363.034 161.5,365C 159.965,365.496 158.465,365.33 157,364.5C 152.111,368.819 147.611,368.485 143.5,363.5C 141.946,365.933 141.28,368.6 141.5,371.5C 144.523,371.517 147.19,372.517 149.5,374.5C 148.897,376.452 149.23,378.452 150.5,380.5C 148.5,381.833 146.5,383.167 144.5,384.5C 145.939,386.343 145.772,388.01 144,389.5C 143.71,387.956 143.044,386.623 142,385.5C 140.287,386.878 138.953,388.545 138,390.5C 136.228,389.01 136.061,387.343 137.5,385.5C 128.52,384.613 128.52,383.113 137.5,381C 136.167,380.667 134.833,380.333 133.5,380C 135.674,378.203 138.007,378.036 140.5,379.5C 141.047,377.288 140.047,375.621 137.5,374.5C 136.481,375.687 135.314,376.687 134,377.5C 133.675,373.384 132.841,369.384 131.5,365.5C 129.885,366.154 128.218,366.654 126.5,367C 127.423,369.041 127.756,371.208 127.5,373.5C 125.193,373.986 123.027,373.986 121,373.5C 120,374.5 119,375.5 118,376.5C 117.333,375.833 116.667,375.167 116,374.5C 115.667,376.167 115.333,377.833 115,379.5C 113.951,380.517 112.784,380.684 111.5,380C 112.554,378.612 112.72,377.112 112,375.5C 110.488,377.686 108.488,379.353 106,380.5C 104.958,377.196 106.125,375.029 109.5,374C 106.681,373.017 104.014,372.517 101.5,372.5C 102.768,370.953 104.435,369.953 106.5,369.5C 107.451,370.326 108.451,370.492 109.5,370C 108.284,368.26 106.618,367.26 104.5,367C 104.833,366.667 105.167,366.333 105.5,366C 107.847,365.666 110.181,365.833 112.5,366.5C 112.5,367.5 112.5,368.5 112.5,369.5C 118.282,370.175 119.949,367.841 117.5,362.5C 115.712,362.785 114.045,362.452 112.5,361.5C 116.112,359.191 120.112,358.024 124.5,358C 123,357.167 121.833,356 121,354.5C 119.989,355.337 118.822,355.67 117.5,355.5C 117.66,353.801 117.494,352.134 117,350.5C 114.432,351.974 111.432,353.641 108,355.5C 107.333,354.833 106.667,354.167 106,353.5C 105.667,355.167 105.333,356.833 105,358.5C 103.951,359.517 102.784,359.684 101.5,359C 102.982,355.243 102.316,354.743 99.5,357.5C 92.9131,356.682 93.2465,355.182 100.5,353C 92.4203,349.541 92.7536,348.207 101.5,349C 100.33,347.245 98.6633,346.245 96.5,346C 98.272,344.513 100.272,344.18 102.5,345C 105.765,349.554 109.098,349.554 112.5,345C 109.349,342.345 106.015,340.011 102.5,338C 103.731,336.817 103.731,335.651 102.5,334.5C 100.05,333.289 98.0502,331.622 96.5,329.5C 97.664,329.835 98.9974,329.835 100.5,329.5C 98.9546,327.56 96.9546,326.394 94.5,326C 95.4296,325.009 96.5962,324.509 98,324.5C 99.5852,325.245 101.085,325.745 102.5,326C 101.911,323.486 100.578,321.486 98.5,320C 102.723,319.213 104.889,321.047 105,325.5C 106.117,324.051 106.784,322.384 107,320.5C 108.819,323.168 108.985,326.001 107.5,329C 108.995,334.08 112.328,336.08 117.5,335C 120.818,334.121 124.152,333.287 127.5,332.5C 125.955,331.548 124.288,331.215 122.5,331.5C 122.5,330.5 122.5,329.5 122.5,328.5C 124.288,328.785 125.955,328.452 127.5,327.5C 126.332,325.783 124.665,325.116 122.5,325.5C 122.238,324.022 122.571,322.689 123.5,321.5C 126.092,320.083 128.759,319.083 131.5,318.5 Z"/></g>
<g><path style="opacity:1" fill="#e0464d" d="M 114.5,322.5 C 116.824,322.662 118.491,323.828 119.5,326C 121.5,326.333 123.5,326.667 125.5,327C 119.735,330.157 116.069,328.657 114.5,322.5 Z"/></g>
<g><path style="opacity:1" fill="#5a6062" d="M 369.5,375.5 C 370.209,374.596 371.209,374.263 372.5,374.5C 372.5,376.833 372.5,379.167 372.5,381.5C 372.06,379.156 371.06,377.156 369.5,375.5 Z"/></g>
</svg>
