<?xml version="1.0" encoding="UTF-8"?>
<!DOCTYPE svg PUBLIC "-//W3C//DTD SVG 1.1//EN" "http://www.w3.org/Graphics/SVG/1.1/DTD/svg11.dtd">
<svg xmlns="http://www.w3.org/2000/svg" version="1.1" width="64px" height="64px" style="shape-rendering:geometricPrecision; text-rendering:geometricPrecision; image-rendering:optimizeQuality; fill-rule:evenodd; clip-rule:evenodd" xmlns:xlink="http://www.w3.org/1999/xlink">
<g><path style="opacity:0.952" fill="#f3ba33" d="M 30.5,2.5 C 33.3943,3.88229 35.8943,5.88229 38,8.5C 44.1656,4.66648 47.6656,6.33314 48.5,13.5C 50.6106,14.9488 52.9439,15.9488 55.5,16.5C 56.4065,19.4083 56.0732,22.2417 54.5,25C 56.684,27.0165 58.684,29.1831 60.5,31.5C 58.684,33.8169 56.684,35.9835 54.5,38C 58.3335,44.1656 56.6669,47.6656 49.5,48.5C 48.0512,50.6106 47.0512,52.9439 46.5,55.5C 43.5917,56.4065 40.7583,56.0732 38,54.5C 35.9835,56.684 33.8169,58.684 31.5,60.5C 29.1831,58.684 27.0165,56.684 25,54.5C 18.8344,58.3335 15.3344,56.6669 14.5,49.5C 12.3894,48.0512 10.0561,47.0512 7.5,46.5C 6.59347,43.5917 6.9268,40.7583 8.5,38C 6.31604,35.9835 4.31604,33.8169 2.5,31.5C 4.31604,29.1831 6.31604,27.0165 8.5,25C 4.66648,18.8344 6.33314,15.3344 13.5,14.5C 14.9488,12.3894 15.9488,10.0561 16.5,7.5C 19.4083,6.59347 22.2417,6.9268 25,8.5C 27.0396,6.62976 28.8729,4.62976 30.5,2.5 Z"/></g>
<g><path style="opacity:1" fill="#f3d45a" d="M 26.5,14.5 C 42.3154,13.4813 49.4821,20.8147 48,36.5C 41.0131,49.638 31.3464,51.9713 19,43.5C 11.1027,31.0398 13.6027,21.3731 26.5,14.5 Z"/></g>
<g><path style="opacity:1" fill="#f3bd38" d="M 37.5,18.5 C 42.6719,19.8485 45.1719,23.1818 45,28.5C 42.9967,24.6811 40.4967,21.3477 37.5,18.5 Z"/></g>
</svg>
